<?xml version="1.0" encoding="UTF-8" standalone="no"?>
<!-- Created with Inkscape (http://www.inkscape.org/) -->

<svg
   width="182.4325mm"
   height="295.11307mm"
   viewBox="0 0 182.4325 295.11307"
   version="1.1"
   id="svg5"
   inkscape:version="1.1.1 (3bf5ae0d25, 2021-09-20)"
   sodipodi:docname="comparing_smears.svg"
   xmlns:inkscape="http://www.inkscape.org/namespaces/inkscape"
   xmlns:sodipodi="http://sodipodi.sourceforge.net/DTD/sodipodi-0.dtd"
   xmlns="http://www.w3.org/2000/svg"
   xmlns:svg="http://www.w3.org/2000/svg">
  <sodipodi:namedview
     id="namedview7"
     pagecolor="#ffffff"
     bordercolor="#666666"
     borderopacity="1.0"
     inkscape:pageshadow="2"
     inkscape:pageopacity="0.0"
     inkscape:pagecheckerboard="0"
     inkscape:document-units="mm"
     showgrid="false"
     fit-margin-top="0"
     fit-margin-left="0"
     fit-margin-right="0"
     fit-margin-bottom="0"
     inkscape:zoom="0.90583672"
     inkscape:cx="417.84572"
     inkscape:cy="547.56005"
     inkscape:window-width="2560"
     inkscape:window-height="1476"
     inkscape:window-x="-12"
     inkscape:window-y="-12"
     inkscape:window-maximized="1"
     inkscape:current-layer="layer1" />
  <defs
     id="defs2">
    <clipPath
       clipPathUnits="userSpaceOnUse"
       id="clipPath924">
      <path
         d="M 48.371875,53.66875 H 383.17187 v 181.44 H 48.371875 Z"
         id="path922" />
    </clipPath>
    <clipPath
       clipPathUnits="userSpaceOnUse"
       id="clipPath934">
      <path
         d="M 48.371875,53.66875 H 383.17187 v 181.44 H 48.371875 Z"
         id="path932" />
    </clipPath>
    <clipPath
       clipPathUnits="userSpaceOnUse"
       id="clipPath944">
      <path
         d="M 48.371875,53.66875 H 383.17187 v 181.44 H 48.371875 Z"
         id="path942" />
    </clipPath>
    <clipPath
       clipPathUnits="userSpaceOnUse"
       id="clipPath954">
      <path
         d="M 48.371875,53.66875 H 383.17187 v 181.44 H 48.371875 Z"
         id="path952" />
    </clipPath>
    <clipPath
       clipPathUnits="userSpaceOnUse"
       id="clipPath1209">
      <path
         d="M 48.371875,53.66875 H 383.17187 v 181.44 H 48.371875 Z"
         id="path1207" />
    </clipPath>
    <clipPath
       clipPathUnits="userSpaceOnUse"
       id="clipPath1219">
      <path
         d="M 48.371875,53.66875 H 383.17187 v 181.44 H 48.371875 Z"
         id="path1217" />
    </clipPath>
    <clipPath
       clipPathUnits="userSpaceOnUse"
       id="clipPath1229">
      <path
         d="M 48.371875,53.66875 H 383.17187 v 181.44 H 48.371875 Z"
         id="path1227" />
    </clipPath>
    <clipPath
       clipPathUnits="userSpaceOnUse"
       id="clipPath1239">
      <path
         d="M 48.371875,53.66875 H 383.17187 v 181.44 H 48.371875 Z"
         id="path1237" />
    </clipPath>
    <clipPath
       clipPathUnits="userSpaceOnUse"
       id="clipPath1494">
      <path
         d="M 48.371875,53.66875 H 383.17187 v 181.44 H 48.371875 Z"
         id="path1492" />
    </clipPath>
    <clipPath
       clipPathUnits="userSpaceOnUse"
       id="clipPath1504">
      <path
         d="M 48.371875,53.66875 H 383.17187 v 181.44 H 48.371875 Z"
         id="path1502" />
    </clipPath>
    <clipPath
       clipPathUnits="userSpaceOnUse"
       id="clipPath1514">
      <path
         d="M 48.371875,53.66875 H 383.17187 v 181.44 H 48.371875 Z"
         id="path1512" />
    </clipPath>
    <clipPath
       clipPathUnits="userSpaceOnUse"
       id="clipPath1524">
      <path
         d="M 48.371875,53.66875 H 383.17187 v 181.44 H 48.371875 Z"
         id="path1522" />
    </clipPath>
  </defs>
  <g
     inkscape:label="Layer 1"
     inkscape:groupmode="layer"
     id="layer1"
     transform="translate(-14.460521,2.9706803)">
    <g
       id="g830"
       inkscape:label="tandem_A973_D690_uv_vis_smear04"
       transform="matrix(0.35277777,0,0,-0.35277777,11.920521,91.64104)">
      <path
         d="M 48.371875,53.66875 H 383.17187 v 181.44 H 48.371875 Z"
         style="fill:#ffffff;fill-opacity:1;fill-rule:nonzero;stroke:none"
         id="path832" />
      <path
         d="m 115.33187,53.66875 v -8"
         style="fill:#000000;fill-opacity:1;fill-rule:nonzero;stroke:#000000;stroke-width:1.5;stroke-linecap:butt;stroke-linejoin:round;stroke-miterlimit:10;stroke-dasharray:none;stroke-opacity:1"
         id="path834" />
      <g
         id="g836"
         transform="translate(100.05063,30.0125)">
        <text
           transform="scale(1,-1)"
           style="font-variant:normal;font-weight:normal;font-size:16px;font-family:DejaVuSans;-inkscape-font-specification:DejaVuSans;writing-mode:lr-tb;fill:#000000;fill-opacity:1;fill-rule:nonzero;stroke:none"
           id="text840"><tspan
             x="0 10.176 20.351999"
             y="0"
             sodipodi:role="line"
             id="tspan838">400</tspan></text>
      </g>
      <path
         d="m 204.61187,53.66875 v -8"
         style="fill:#000000;fill-opacity:1;fill-rule:nonzero;stroke:#000000;stroke-width:1.5;stroke-linecap:butt;stroke-linejoin:round;stroke-miterlimit:10;stroke-dasharray:none;stroke-opacity:1"
         id="path842" />
      <g
         id="g844"
         transform="translate(189.33062,30.0125)">
        <text
           transform="scale(1,-1)"
           style="font-variant:normal;font-weight:normal;font-size:16px;font-family:DejaVuSans;-inkscape-font-specification:DejaVuSans;writing-mode:lr-tb;fill:#000000;fill-opacity:1;fill-rule:nonzero;stroke:none"
           id="text848"><tspan
             x="0 10.176 20.351999"
             y="0"
             sodipodi:role="line"
             id="tspan846">600</tspan></text>
      </g>
      <path
         d="m 293.89187,53.66875 v -8"
         style="fill:#000000;fill-opacity:1;fill-rule:nonzero;stroke:#000000;stroke-width:1.5;stroke-linecap:butt;stroke-linejoin:round;stroke-miterlimit:10;stroke-dasharray:none;stroke-opacity:1"
         id="path850" />
      <g
         id="g852"
         transform="translate(278.61063,30.0125)">
        <text
           transform="scale(1,-1)"
           style="font-variant:normal;font-weight:normal;font-size:16px;font-family:DejaVuSans;-inkscape-font-specification:DejaVuSans;writing-mode:lr-tb;fill:#000000;fill-opacity:1;fill-rule:nonzero;stroke:none"
           id="text856"><tspan
             x="0 10.176 20.351999"
             y="0"
             sodipodi:role="line"
             id="tspan854">800</tspan></text>
      </g>
      <path
         d="m 383.17187,53.66875 v -8"
         style="fill:#000000;fill-opacity:1;fill-rule:nonzero;stroke:#000000;stroke-width:1.5;stroke-linecap:butt;stroke-linejoin:round;stroke-miterlimit:10;stroke-dasharray:none;stroke-opacity:1"
         id="path858" />
      <g
         id="g860"
         transform="translate(362.79687,30.0125)">
        <text
           transform="scale(1,-1)"
           style="font-variant:normal;font-weight:normal;font-size:16px;font-family:DejaVuSans;-inkscape-font-specification:DejaVuSans;writing-mode:lr-tb;fill:#000000;fill-opacity:1;fill-rule:nonzero;stroke:none"
           id="text864"><tspan
             x="0 10.176 20.351999 30.528"
             y="0"
             sodipodi:role="line"
             id="tspan862">1000</tspan></text>
      </g>
      <g
         id="g866"
         transform="translate(146.62344,10.528125)">
        <text
           transform="scale(1,-1)"
           style="font-variant:normal;font-weight:normal;font-size:16px;font-family:DejaVuSans;-inkscape-font-specification:DejaVuSans;writing-mode:lr-tb;fill:#000000;fill-opacity:1;fill-rule:nonzero;stroke:none"
           id="text870"><tspan
             x="0 14.808375 24.616375 34.088375 43.928375 48.376373 58.216373 68.360374 78.520378 84.792374 94.936378 100.02438 106.26437 116.40838 131.99237"
             y="0"
             sodipodi:role="line"
             id="tspan868">Wavelength (nm)</tspan></text>
      </g>
      <path
         d="m 48.371875,53.895267 h -8"
         style="fill:#000000;fill-opacity:1;fill-rule:nonzero;stroke:#000000;stroke-width:1.5;stroke-linecap:butt;stroke-linejoin:round;stroke-miterlimit:10;stroke-dasharray:none;stroke-opacity:1"
         id="path872" />
      <g
         id="g874"
         transform="translate(26.684375,47.817142)">
        <text
           transform="scale(1,-1)"
           style="font-variant:normal;font-weight:normal;font-size:16px;font-family:DejaVuSans;-inkscape-font-specification:DejaVuSans;writing-mode:lr-tb;fill:#000000;fill-opacity:1;fill-rule:nonzero;stroke:none"
           id="text878"><tspan
             x="0"
             y="0"
             id="tspan876">0</tspan></text>
      </g>
      <path
         d="m 48.371875,99.198638 h -8"
         style="fill:#000000;fill-opacity:1;fill-rule:nonzero;stroke:#000000;stroke-width:1.5;stroke-linecap:butt;stroke-linejoin:round;stroke-miterlimit:10;stroke-dasharray:none;stroke-opacity:1"
         id="path880" />
      <g
         id="g882"
         transform="translate(26.684375,93.120513)">
        <text
           transform="scale(1,-1)"
           style="font-variant:normal;font-weight:normal;font-size:16px;font-family:DejaVuSans;-inkscape-font-specification:DejaVuSans;writing-mode:lr-tb;fill:#000000;fill-opacity:1;fill-rule:nonzero;stroke:none"
           id="text886"><tspan
             x="0"
             y="0"
             id="tspan884">1</tspan></text>
      </g>
      <path
         d="m 48.371875,144.50201 h -8"
         style="fill:#000000;fill-opacity:1;fill-rule:nonzero;stroke:#000000;stroke-width:1.5;stroke-linecap:butt;stroke-linejoin:round;stroke-miterlimit:10;stroke-dasharray:none;stroke-opacity:1"
         id="path888" />
      <g
         id="g890"
         transform="translate(26.684375,138.42388)">
        <text
           transform="scale(1,-1)"
           style="font-variant:normal;font-weight:normal;font-size:16px;font-family:DejaVuSans;-inkscape-font-specification:DejaVuSans;writing-mode:lr-tb;fill:#000000;fill-opacity:1;fill-rule:nonzero;stroke:none"
           id="text894"><tspan
             x="0"
             y="0"
             id="tspan892">2</tspan></text>
      </g>
      <path
         d="m 48.371875,189.80538 h -8"
         style="fill:#000000;fill-opacity:1;fill-rule:nonzero;stroke:#000000;stroke-width:1.5;stroke-linecap:butt;stroke-linejoin:round;stroke-miterlimit:10;stroke-dasharray:none;stroke-opacity:1"
         id="path896" />
      <g
         id="g898"
         transform="translate(26.684375,183.72725)">
        <text
           transform="scale(1,-1)"
           style="font-variant:normal;font-weight:normal;font-size:16px;font-family:DejaVuSans;-inkscape-font-specification:DejaVuSans;writing-mode:lr-tb;fill:#000000;fill-opacity:1;fill-rule:nonzero;stroke:none"
           id="text902"><tspan
             x="0"
             y="0"
             id="tspan900">3</tspan></text>
      </g>
      <path
         d="m 48.371875,235.10875 h -8"
         style="fill:#000000;fill-opacity:1;fill-rule:nonzero;stroke:#000000;stroke-width:1.5;stroke-linecap:butt;stroke-linejoin:round;stroke-miterlimit:10;stroke-dasharray:none;stroke-opacity:1"
         id="path904" />
      <g
         id="g906"
         transform="translate(26.684375,229.03062)">
        <text
           transform="scale(1,-1)"
           style="font-variant:normal;font-weight:normal;font-size:16px;font-family:DejaVuSans;-inkscape-font-specification:DejaVuSans;writing-mode:lr-tb;fill:#000000;fill-opacity:1;fill-rule:nonzero;stroke:none"
           id="text910"><tspan
             x="0"
             y="0"
             id="tspan908">4</tspan></text>
      </g>
      <g
         id="g912"
         transform="rotate(90,-25.051406,44.407656)">
        <text
           transform="scale(1,-1)"
           style="font-variant:normal;font-weight:normal;font-size:16px;font-family:DejaVuSans;-inkscape-font-specification:DejaVuSans;writing-mode:lr-tb;fill:#000000;fill-opacity:1;fill-rule:nonzero;stroke:none"
           id="text916"><tspan
             x="0 12.592 20.927999 29.728001 34.175999 38.624001 43.071999 52.880001 59.152 68.944 75.519997 80.608002 90.767998 97.040001 103.27225 113.11225 123.25625 133.41624 139.68825"
             y="0"
             sodipodi:role="line"
             id="tspan914">Oscillator Strength</tspan></text>
      </g>
      <g
         id="g918">
        <g
           id="g920"
           clip-path="url(#clipPath924)">
          <path
             d="m 532.0315,53.965207 -275.33741,0.140214 -43.1895,0.213483 -15.66411,0.265438 -8.34466,0.334423 -4.53317,0.346703 -3.29456,0.420175 -2.14822,0.420009 -2.11085,0.615757 -2.07446,0.960828 -1.02387,0.698564 -1.01512,0.93122 -1.00649,1.27996 -0.99795,1.825075 -0.98954,2.720205 -0.98121,4.276238 -0.97301,7.15136 -0.9649,12.7139 -0.95689,22.892811 -0.94898,32.42796 -0.94117,9.38348 -1.8593,-56.709901 -0.91831,-16.002142 -0.91087,-8.763522 -0.90353,-5.007037 -0.89627,-2.997345 -0.8891,-1.841047 -0.88202,-1.119253 -0.87501,-0.636742 -0.8681,-0.317726 -2.56361,-0.558665 -1.67595,-0.362467 -0.82827,0.04608 -0.82189,0.252849 -0.8156,0.491219 -0.80938,0.782436 -0.80321,1.166386 -0.79714,1.707713 -0.79111,2.511765 -0.78517,3.748758 -0.77929,5.664103 -0.77347,8.44184 -1.52976,22.433718 -0.75641,2.44217 -0.75085,-8.6334 -0.74534,-12.007656 -0.73991,-9.733979 -0.73453,-6.697777 -0.7292,-4.448284 -0.72394,-2.981191 -0.71873,-2.041212 -0.71358,-1.427753 -0.70848,-1.014595 -0.70344,-0.725842 -0.69845,-0.515573 -0.69351,-0.355206 -1.37243,-0.341766 -1.3533,0.07381 -0.6696,0.196869 -0.66496,0.323508 -0.66038,0.479533 -0.65585,0.68074 -0.65135,0.946807 -0.6469,1.296152 -0.6425,1.723835 -1.90156,6.398791 -1.2465,2.48922 -0.61702,1.86862 -1.22177,5.872657 -0.60484,1.141772 -0.60087,-2.018608 -1.18994,-7.966808 -0.58915,-3.041275 -0.58533,-1.985531 -0.58155,-1.068139 -0.57779,-0.271566 -0.57407,0.498483 -0.5704,1.357043 -0.56675,2.427037 -0.56314,3.793227 -1.6681,15.069576 -0.54904,-1.318953 -2.16206,-20.950127 -0.53215,-2.701307 -0.52886,-1.921155 -0.52561,-1.390578 -0.52238,-1.028047 -1.03521,-1.3728 -1.02267,-0.836175 -1.01034,-0.534688 -1.49289,-0.47601 -1.46639,-0.235446 -1.915176,-0.04632 -1.407234,0.181507 -0.924639,0.2785 -0.914041,0.496225 -0.903624,0.890958 -0.447962,0.695193 -0.445423,0.943223 -0.883319,2.783871 -0.437937,1.559755 -0.435485,0.988855 -0.433051,-0.121588 -0.858885,-2.412107 -0.425873,-1.142579 -0.423521,-0.778114 -0.421187,-0.41308 -0.418874,-0.07805 -0.416578,0.247158 -0.414301,0.595904 -0.412044,0.9954 -0.817388,3.206105 -0.40538,1.66478 -0.403194,0.747381 -0.401027,-0.643932 -1.190249,-4.642515 -0.392528,-0.947763 -0.390447,-0.545738 -0.38838,-0.188188 -0.386331,0.144058 -0.384298,0.47059 -0.762559,1.776702 -0.754616,1.673296 -0.374367,0.294114 -0.372429,-0.153507 -0.370503,-0.655271 -1.10011,-2.746523 -0.362952,-0.477603 -0.3611,-0.238361 -0.359263,-0.06963 -0.357439,0.06511 -0.355629,0.225965 -0.353833,0.442642 -0.35205,0.72046 -0.350281,1.069197 -0.348526,1.507598 -0.346783,2.053649 -0.688389,6.172896 -1.019837,11.507551 -0.336597,0.714651 -0.334942,-2.021521 -0.664971,-5.88356 -0.330053,-1.611728 -0.655299,-1.837474 -0.971105,-4.577008 -0.32059,-0.715115 -0.319051,-0.07412 -0.317526,0.465137 -0.316009,0.985059 -0.939043,5.147354 -0.310054,0.396162 -0.615731,-1.6443 -0.305698,-0.05811 -0.304266,1.119031 -0.604275,3.853217 -0.300031,0.03186 -0.298637,-2.206423 -0.593138,-6.06132 -0.294518,-2.012389 -0.293165,-1.123734 -0.29182,-0.321385 -0.290484,0.411714 -0.289158,1.104829 -0.28784,1.781875 -0.286533,2.549393 -0.569174,8.483118 -0.564047,8.695746 -0.280122,-1.151825 -1.381937,-21.912108 -0.544213,-3.858905 -0.539419,-2.336769 -0.534688,-1.381841 -0.530017,-0.741227 -0.525409,-0.226535 -0.260994,0.07765 -0.259865,0.222301 -0.51637,0.962805 -1.019498,2.837642 -0.252158,-0.435499 -0.997968,-3.327508 -0.492681,-0.55269 -0.731291,-0.257143 -0.241728,0.0656 -0.956902,0.792064 -1.174069,-0.300765 -0.231933,0.06119 -0.230986,0.22769 -0.230045,0.461891 -0.45729,1.706558 -0.453595,2.193954 -0.225426,0.565073 L 48.13313,62.979179 47.023954,57.18517 46.586446,56.157029 45.936656,55.356245 45.29451,54.947208 44.240892,54.600961 42.597006,54.353742 39.45563,54.162852 32.527141,54.022121 14.179629,53.930433 -1,53.909783 v 0"
             style="fill:none;stroke:#882255;stroke-width:2;stroke-linecap:square;stroke-linejoin:round;stroke-miterlimit:10;stroke-dasharray:none;stroke-opacity:1"
             id="path926" />
        </g>
      </g>
      <g
         id="g928">
        <g
           id="g930"
           clip-path="url(#clipPath934)">
          <path
             d="m 532.0315,53.961198 -329.17047,0.132673 -42.01408,0.20135 -12.82873,0.252265 -4.72939,0.265471 -2.28617,0.269093 -1.49619,0.306334 -1.47444,0.515044 -1.45314,0.8964 -2.14079,1.810656 -0.70344,0.08494 -0.69845,-0.36877 -2.06594,-1.623549 -1.3533,-0.559983 -1.33456,-0.236787 -1.96758,-0.02314 -1.92755,0.241664 -1.88875,0.524388 -1.23818,0.591347 -1.22177,0.930839 -0.60484,0.670927 -0.60087,0.880438 -0.59692,1.177521 -0.59302,1.602194 -0.58915,2.200373 -0.58533,2.984778 -1.15934,7.823038 -0.57407,2.640772 -0.5704,-0.33661 -0.56675,-2.815055 -1.1227,-6.123215 -0.55602,-1.746485 -0.55252,-0.820361 -0.54904,0.02094 -0.5456,0.870172 -0.54219,1.86912 -0.53881,3.2088 -0.53546,5.131977 -0.53215,7.793578 -1.05447,20.544535 -0.52238,2.1387 -0.51919,-7.970465 -1.02891,-20.422436 -0.50978,-6.408326 -0.50669,-4.276625 -0.50365,-2.862797 -0.50062,-1.943596 -0.49762,-1.334057 -0.49465,-0.914891 -0.49171,-0.612954 -0.48879,-0.382895 -0.48589,-0.19528 -0.48303,-0.02937 -0.480193,0.131526 -0.477372,0.30353 -0.474581,0.505755 -0.471813,0.765221 -0.46907,1.12546 -0.466351,1.663793 -0.463656,2.52942 -0.460983,4.034158 -0.458334,6.882025 -0.455707,12.739211 -0.453103,24.994373 -0.450521,41.24378 -0.447962,13.99376 -0.88833,-68.2969 -0.440412,-14.534535 -0.437937,-6.081531 -0.435485,-1.476036 -0.433051,1.766818 -0.430638,4.900733 -0.428247,8.700831 -0.425873,13.7037 -0.423521,20.1997 -0.421187,26.46179 -0.418874,16.6052 -0.416578,-19.0312 L 87.99194,122.61219 87.579896,100.39657 87.170092,87.309613 86.762508,79.641047 86.357128,75.090783 85.953934,72.44638 85.552907,71.0352 85.15403,70.378371 83.97013,69.2587 l -0.390447,-0.07001 -0.38838,0.524457 -0.386331,1.321771 -0.384298,2.278877 -0.762559,7.273239 -0.378293,3.664005 -0.376323,2.314997 -0.746796,2.864377 -0.370503,1.577052 -0.368594,-0.377583 -0.366698,-3.547936 -0.72777,-10.017485 -0.3611,-3.563997 -0.359263,-2.310836 -0.357439,-1.269846 -0.355629,-0.42377 -0.353833,0.256351 -1.050857,2.299826 -0.346783,0.811933 -0.345053,1.39368 -0.343336,2.499046 -0.341633,4.040033 -1.014801,18.864992 -0.334942,2.225437 -0.3333,-1.34031 -0.661724,-3.849422 -0.328447,-1.093154 -0.326852,-1.893284 -0.971105,-9.041036 -0.32059,-1.316166 -0.319051,0.08161 -0.317526,1.618104 -0.630514,5.107567 -0.313011,0.03855 -1.237312,-8.93561 -0.305698,1.135534 -0.304266,3.530182 -0.302843,6.550036 -0.9001,33.657299 -0.297256,-2.44612 -0.883565,-36.346729 -0.582304,-9.77945 -0.576998,-4.721613 -0.571765,-2.635349 -0.283942,-0.472273 -0.28266,0.02351 -0.281387,0.507206 -0.280122,1.076973 -0.278866,1.85965 -0.277619,3.002616 -0.276379,4.622859 -0.549073,15.658885 -0.27271,9.391555 -0.271503,5.02822 -0.270305,-2.92047 -0.803802,-21.895969 -0.530017,-6.70129 -0.263277,-1.186995 -0.523126,-0.965362 -0.259865,-0.979335 -1.028307,-5.130059 -0.254324,-0.626844 -0.253237,-0.209383 -0.252158,0.249612 -0.501103,0.704081 -0.496865,-0.0693 -0.24686,0.39877 -0.490608,1.613114 -0.243762,0.350044 -0.242742,-0.04552 -0.241728,0.14419 -0.240721,0.766083 -0.716181,3.996747 -0.236755,-0.03088 -0.235778,-1.403185 -0.701536,-5.37475 -0.231933,-0.370309 -0.230986,0.535716 -0.459155,2.974265 -0.681775,5.225646 -0.225426,-0.659907 -0.448136,-6.878502 -0.44455,-6.727195 -0.441009,-4.023279 -0.437508,-2.276246 -0.43405,-1.357339 L 45.507717,56.842706 44.870593,56.149147 44.032619,55.588651 43.003245,55.171117 41.396721,54.794599 39.076022,54.503416 35.078347,54.259789 27.802375,54.077281 12.381907,53.955414 -1,53.921376 v 0"
             style="fill:none;stroke:#cc6677;stroke-width:2;stroke-linecap:square;stroke-linejoin:round;stroke-miterlimit:10;stroke-dasharray:none;stroke-opacity:1"
             id="path936" />
        </g>
      </g>
      <g
         id="g938">
        <g
           id="g940"
           clip-path="url(#clipPath944)">
          <path
             d="m 532.0315,54.10477 -118.13425,0.17947 -44.7305,0.265211 -19.36097,0.291738 -11.97199,0.350152 -8.53324,0.435672 -5.48991,0.443372 -5.33846,0.658158 -2.61439,0.455144 -2.57882,0.57953 -2.54396,0.751847 -2.50982,0.995869 -2.47636,1.349236 -2.44355,1.871411 -2.41141,2.652441 -2.37988,3.807975 -2.34897,5.395625 -4.60761,14.247232 -2.25978,3.325221 -2.23117,-3.293148 -4.37869,-14.181364 -2.14854,-5.360893 -2.12202,-3.771323 -2.09599,-2.613204 -2.07042,-1.828782 -2.04533,-1.302196 -2.02068,-0.943107 -1.99649,-0.691641 -1.97271,-0.509566 -3.87581,-0.63555 -3.78567,-0.256896 -3.69865,0.0944 -1.81762,0.205524 -1.79697,0.334901 -5.27043,1.407546 -1.71777,0.04671 -1.69879,-0.377586 -4.98557,-1.701317 -3.23437,-0.649845 -3.16556,-0.339667 -4.62403,-0.207924 -5.94405,0.01514 -5.70509,0.252886 -4.13054,0.375405 -4.00966,0.629043 -2.60853,0.653434 -2.55861,0.972132 -1.26102,0.669857 -1.24908,0.84871 -1.23729,1.093364 -1.22568,1.433977 -1.21422,1.914809 -1.20292,2.598594 -1.19179,3.574354 -1.1808,4.988616 -1.16997,7.09778 -1.15928,10.059672 -1.14875,12.724401 -1.13835,10.82427 -1.12809,1.67976 -1.11798,-6.26464 -1.10799,-7.11949 -2.18657,-12.528219 -2.14822,-14.201869 -1.06003,-5.42034 -1.05082,-4.008918 -1.04172,-2.909935 -1.03274,-2.12415 -1.02387,-1.574022 -1.01512,-1.186838 -1.00649,-0.909959 -0.99795,-0.707982 -1.97075,-1.000532 -1.93791,-0.637454 -1.90587,-0.404461 -2.80047,-0.309012 -2.73271,-0.02416 -1.78537,0.150873 -1.75703,0.332752 -1.72937,0.617021 -0.85451,0.476326 -0.84783,0.644639 -0.84123,0.878457 -0.83472,1.199107 -0.82827,1.61105 -2.44687,5.929094 -0.80321,0.271161 -0.79714,-1.10471 -0.79111,-1.590966 -0.78517,-1.295321 -0.77929,-0.687501 -0.77347,-0.04285 -0.76772,0.507686 -0.76204,0.790206 -0.75641,0.555476 -0.75085,-0.178679 -0.74534,-0.864522 -0.73991,-1.041109 -0.73453,-0.791524 -0.7292,-0.368993 -0.72394,0.0946 -0.71873,0.57204 -0.71358,1.053412 -1.41192,2.982748 -0.69845,0.999968 -0.69351,0.07542 -1.37243,-0.911015 -0.67901,0.200651 -0.67429,1.044298 -0.6696,2.042271 -0.66496,3.139845 -1.96758,11.685861 -0.6469,1.687336 -0.6425,0.235082 -0.63815,-1.166972 -0.63384,-2.360278 -0.62957,-3.187471 -1.86352,-11.183699 -0.61291,-2.668446 -0.60886,-1.917139 -0.60484,-1.294044 -0.60087,-0.788194 -0.59692,-0.354365 -0.59302,0.05762 -0.58915,0.49698 -0.58533,1.007964 -0.58155,1.606007 -1.72226,6.212995 -0.56675,-0.249357 -0.56314,-1.955535 -1.11558,-4.625689 -0.55252,-1.480727 -0.54904,-0.836555 -0.5456,-0.272713 -0.54219,0.183074 -0.53881,0.427718 -0.53546,0.271876 -0.53215,-0.305143 -0.52886,-0.904984 -1.04799,-2.153092 -0.51919,-0.775922 -0.51602,-0.528176 -0.51289,-0.320421 -1.01647,-0.264602 -1.99654,-0.363916 -0.49171,0.107403 -0.48879,0.268038 -0.48589,0.451836 -1.440595,1.964901 -0.474581,0.13828 -0.471813,-0.394223 -0.935421,-1.304151 -0.463656,-0.470615 -0.460983,-0.276431 -0.458334,-0.09499 -0.455707,0.0742 -0.453103,0.245332 -0.450521,0.437423 -0.447962,0.67253 -0.445423,0.973386 -0.442907,1.3508 -1.313834,5.552689 -0.433051,0.885396 -0.430638,-0.07048 -0.85412,-1.086881 -0.423521,-0.913006 -1.67094,-5.356256 -0.412044,-0.681438 -0.409804,-0.367004 -0.407584,-0.0864 -0.40538,0.183228 -0.403194,0.462787 -0.401027,0.755181 -1.582777,3.842976 -0.390447,-0.09454 -1.541289,-2.680578 -0.380279,0.03171 -1.128983,0.830621 -1.111526,1.046345 -0.366698,-0.112679 -1.08887,-1.526316 -0.359263,-0.09465 -0.357439,0.256314 -0.355629,0.596444 -0.705883,2.094851 -1.390643,5.402832 -0.684969,3.934506 -0.678204,5.060371 -0.336597,1.242965 -0.334942,-0.555357 -1.650323,-8.820011 -0.325269,-0.803575 -0.323698,-0.104702 -0.322138,0.532726 -0.639641,1.645034 -0.633535,0.992776 -0.314505,0.428948 -0.313011,0.703509 -0.621581,2.749701 -0.615731,3.15712 -0.305698,0.590057 -0.607109,-0.374728 -0.301432,1.206863 -0.300031,3.633491 -0.298637,7.013741 -0.593138,22.079717 -0.294518,3.76972 -0.293165,-7.84504 -0.582304,-22.713656 -0.576998,-12.653706 -0.571765,-6.380706 -0.283942,-1.729754 -0.28266,-0.992912 -0.281387,-0.425255 -0.280122,-0.03926 -0.278866,0.205432 -0.553998,1.018902 -0.549073,1.203024 -0.27271,-0.04079 -0.271503,-0.804109 -0.80735,-3.332891 -0.266757,-0.635694 -0.265588,-0.341529 -0.264429,-0.0072 -0.525409,0.552448 -0.260994,-0.005 -0.518608,-0.944484 -0.514146,-1.050563 -0.255418,-0.28492 -0.254324,-0.02858 -0.253237,0.223454 -0.503242,1.059659 -0.498977,1.351564 -0.494767,0.715249 -0.245821,0.220395 -0.244787,0.03725 -0.728232,-0.971901 -0.240721,0.22004 -0.239719,0.826086 -0.476462,3.480606 -0.472533,3.646314 -0.234808,0.329836 -0.233843,-0.667589 -1.383139,-6.511177 -0.227257,-0.280521 -0.226338,0.112764 -0.225426,0.551073 -0.670857,3.036973 L 47.464963,68.523815 46.152396,58.395676 45.721764,57.138449 45.082137,56.100629 44.449976,55.531722 43.618485,55.093936 42.39505,54.736512 40.417088,54.445066 37.037353,54.222394 30.579576,54.059674 15.500956,53.949816 -1,53.91568 v 0"
             style="fill:none;stroke:#88ccee;stroke-width:2;stroke-linecap:square;stroke-linejoin:round;stroke-miterlimit:10;stroke-dasharray:none;stroke-opacity:1"
             id="path946" />
        </g>
      </g>
      <g
         id="g948">
        <g
           id="g950"
           clip-path="url(#clipPath954)">
          <path
             d="m 532.0315,54.051143 -185.28523,0.168124 -45.8524,0.221237 -20.35464,0.283698 -12.35093,0.394759 -7.75243,0.499029 -3.74178,0.396774 -3.65625,0.574029 -3.57363,0.874488 -1.7567,0.618848 -1.73707,0.803092 -1.71777,1.064895 -1.69879,1.446308 -1.68012,2.015934 -1.66176,2.884214 -1.64369,4.214657 -1.62593,6.174708 -1.60844,8.596666 -1.59124,9.868048 -1.57432,6.166689 -1.55765,-2.842956 -3.06638,-18.585536 -1.50923,-7.108915 -1.49359,-4.898722 -1.47819,-3.330913 -1.46304,-2.299864 -1.4481,-1.626652 -1.4334,-1.179812 -1.41893,-0.876023 -1.40466,-0.664161 -2.7674,-0.914728 -2.71286,-0.575619 -3.97053,-0.514908 -5.11757,-0.34247 -6.12919,-0.14332 -6.98894,0.08441 -5.54063,0.280367 -4.25907,0.437109 -3.09833,0.554988 -2.02161,0.56499 -1.98749,0.838964 -0.98121,0.581854 -0.97301,0.743595 -0.9649,0.968229 -0.95689,1.282374 -0.94898,1.715303 -0.94117,2.272976 -2.77761,8.220315 -0.91087,0.454009 -0.90353,-1.189865 -0.89627,-1.58594 -0.8891,-0.990603 -0.88202,0.01675 -0.87501,1.206747 -0.8681,2.652374 -0.86127,4.60999 -0.85451,7.466345 -0.84783,11.485394 -1.67595,29.060234 -0.82827,1.62769 -1.63749,-15.92989 -1.61259,-6.82169 -0.79714,-6.51694 -1.57628,-17.003164 -0.77929,-6.280508 -0.77347,-4.487501 -0.76772,-3.151166 -0.76204,-2.217121 -0.75641,-1.566078 -0.75085,-1.101429 -0.74534,-0.757013 -0.73991,-0.489024 -0.73453,-0.267886 -0.7292,-0.07246 -0.72394,0.113867 -0.71873,0.306052 -0.71358,0.519801 -0.70848,0.77421 -0.70344,1.095306 -0.69845,1.521542 -0.69351,2.11306 -0.68863,2.96793 -0.6838,4.250698 -0.67901,6.23951 -0.67429,9.383277 -0.6696,14.256717 -0.66496,20.85889 -0.66038,25.9836 -0.65585,20.99633 -0.65135,0.9271 -0.6469,-21.63306 -0.6425,-27.37919 -0.63815,-20.93647 -0.63384,-13.698182 -0.62957,-8.707877 -0.62534,-5.559347 -0.62116,-3.532855 -0.61702,-2.138121 -0.61291,-1.078626 -0.60886,-0.179624 -0.60484,0.632811 -1.79081,3.800855 -0.58915,0.235186 -1.16688,-0.423614 -0.57779,-0.799022 -0.57407,-1.816814 -1.70029,-7.107676 -0.55956,-1.58873 -0.55602,-1.176974 -0.55252,-0.864548 -0.54904,-0.632887 -1.08779,-0.78356 -1.07427,-0.338018 -1.06101,0.0086 -1.04799,0.366032 -0.51919,0.350685 -0.51602,0.500046 -0.51289,0.697512 -0.50978,0.969323 -0.50669,1.357239 -0.50365,1.928796 -0.50062,2.791941 -0.49762,4.104947 -0.49465,6.025801 -1.46639,23.918331 -0.48303,-2.761885 -1.432146,-25.05244 -0.471813,-4.796222 -0.46907,-3.250647 L 97.19664,63.6439 96.732984,62.096664 96.272001,61.008557 95.813667,60.243473 95.35796,59.71701 l -0.453103,-0.339675 -0.450521,-0.184478 -0.447962,-0.04951 -0.445423,0.07274 -0.442907,0.197381 -0.440412,0.351142 -0.437937,0.550618 -1.727421,2.884325 -0.425873,-0.250717 -1.263582,-1.695219 -0.416578,-0.284281 -0.414301,-0.04806 -0.412044,0.200949 -0.817388,1.002062 -0.808574,1.377991 -2.374251,4.689853 -0.38838,1.64243 -0.386331,2.625681 -0.384298,3.8592 -0.38228,5.277114 -0.380279,6.927073 -1.128983,27.350301 -0.372429,-2.43831 -1.105795,-27.904747 -0.72777,-10.019901 -0.720363,-6.419896 -0.357439,-1.964781 -0.355629,-1.272662 -0.353833,-0.69363 -0.35205,-0.183675 -0.350281,0.299921 -0.348526,0.770369 -1.376805,4.524291 -0.678204,1.178697 -0.336597,0.218133 -0.334942,-0.100273 -0.664971,-0.44364 -0.330053,0.230088 -0.328447,0.699049 -0.652121,2.473472 -0.645836,2.611678 -0.639641,1.700374 -0.317526,1.92129 -0.630514,5.540121 -0.313011,1.046433 -0.311527,-1.352603 -0.618646,-8.112345 -0.612837,-7.957435 -0.607109,-4.464332 -0.601463,-2.083597 -0.298637,-0.440657 -0.297256,-0.109912 -0.295882,0.196828 -0.587683,1.153293 -0.582304,1.625053 -0.576998,2.472856 -0.571765,4.203955 -0.847989,6.929957 -0.280122,-0.06331 -0.556485,-2.593591 -0.276379,-0.174587 -0.275148,1.294786 -0.546635,6.562473 -0.271503,3.649731 -0.270305,1.815997 -0.269114,-0.886151 -0.800276,-8.002576 -0.264429,-1.074864 -0.525409,-0.330698 -0.260994,-1.108976 -0.518608,-3.537428 -0.257627,-0.769921 -0.256519,0.292889 -0.509742,2.030377 -0.253237,0.18525 -0.503242,-0.749516 -0.250019,0.593806 -0.496865,2.813729 -0.24686,0.543215 -0.245821,-0.59806 -0.973019,-4.932017 -0.48044,-1.612182 -0.476462,-2.866555 -0.472533,-2.834545 -0.234808,-0.671691 -0.233843,-0.05318 -0.232885,0.552403 -0.462919,2.561021 -0.459155,2.989611 -0.681775,2.422545 -0.225426,0.446889 L 48.13313,75.350173 47.909513,74.082359 47.244018,66.222166 46.804765,62.013021 46.368991,59.527526 45.936656,58.058431 45.29451,56.797929 44.659875,56.081934 43.825151,55.51585 42.799737,55.102648 41.199316,54.737146 38.699212,54.444063 34.557288,54.219399 26.62016,54.051053 8.743974,53.942013 -1,53.921497 v 0"
             style="fill:none;stroke:#3652ac;stroke-width:2;stroke-linecap:square;stroke-linejoin:round;stroke-miterlimit:10;stroke-dasharray:none;stroke-opacity:1"
             id="path956" />
        </g>
      </g>
      <g
         id="g958">
        <path
           d="m 48.371875,53.66875 v 181.44"
           style="fill:none;stroke:#000000;stroke-width:1.5;stroke-linecap:square;stroke-linejoin:miter;stroke-miterlimit:10;stroke-dasharray:none;stroke-opacity:1"
           id="path960" />
        <path
           d="m 383.17187,53.66875 v 181.44"
           style="fill:none;stroke:#000000;stroke-width:1.5;stroke-linecap:square;stroke-linejoin:miter;stroke-miterlimit:10;stroke-dasharray:none;stroke-opacity:1"
           id="path962" />
        <path
           d="M 48.371875,53.66875 H 383.17187"
           style="fill:none;stroke:#000000;stroke-width:1.5;stroke-linecap:square;stroke-linejoin:miter;stroke-miterlimit:10;stroke-dasharray:none;stroke-opacity:1"
           id="path964" />
        <path
           d="M 48.371875,235.10875 H 383.17187"
           style="fill:none;stroke:#000000;stroke-width:1.5;stroke-linecap:square;stroke-linejoin:miter;stroke-miterlimit:10;stroke-dasharray:none;stroke-opacity:1"
           id="path966" />
        <path
           d="M 396.41587,141.71162 H 500.2565 c 2.13333,0 3.2,1.06667 3.2,3.2 v 68.85313 c 0,2.13333 -1.06667,3.2 -3.2,3.2 H 396.41587 c -2.13333,0 -3.2,-1.06667 -3.2,-3.2 v -68.85313 c 0,-2.13333 1.06667,-3.2 3.2,-3.2 z"
           style="fill:#ffffff;fill-opacity:0.8;fill-rule:nonzero;stroke:#cccccc;stroke-width:1;stroke-linecap:butt;stroke-linejoin:miter;stroke-miterlimit:10;stroke-dasharray:none;stroke-opacity:0.8"
           id="path968" />
        <g
           id="g970"
           transform="translate(410.57837,198.4085)">
          <text
             transform="scale(1,-1)"
             style="font-variant:normal;font-weight:normal;font-size:16px;font-family:DejaVuSans;-inkscape-font-specification:DejaVuSans;writing-mode:lr-tb;fill:#000000;fill-opacity:1;fill-rule:nonzero;stroke:none"
             id="text974"><tspan
               x="0 8.0437498 14.276 24.068001 34.212002 40.484001 45.571999 56.740002 66.580002 71.028"
               y="0"
               sodipodi:role="line"
               id="tspan972">Front Cell</tspan></text>
        </g>
        <path
           d="m 399.61588,180.52412 h 16 16"
           style="fill:none;stroke:#882255;stroke-width:2;stroke-linecap:square;stroke-linejoin:round;stroke-miterlimit:10;stroke-dasharray:none;stroke-opacity:1"
           id="path976" />
        <g
           id="g978"
           transform="translate(444.41587,174.92412)">
          <text
             transform="scale(1,-1)"
             style="font-variant:normal;font-weight:normal;font-size:16px;font-family:DejaVuSans;-inkscape-font-specification:DejaVuSans;writing-mode:lr-tb;fill:#000000;fill-opacity:1;fill-rule:nonzero;stroke:none"
             id="text982"><tspan
               x="0 10.66275 19.462749 28.262751 33.35075 38.438751"
               y="0"
               sodipodi:role="line"
               id="tspan980">Acc. 0</tspan></text>
        </g>
        <path
           d="m 399.61588,157.03975 h 16 16"
           style="fill:none;stroke:#cc6677;stroke-width:2;stroke-linecap:square;stroke-linejoin:round;stroke-miterlimit:10;stroke-dasharray:none;stroke-opacity:1"
           id="path984" />
        <g
           id="g986"
           transform="translate(444.41587,151.43975)">
          <text
             transform="scale(1,-1)"
             style="font-variant:normal;font-weight:normal;font-size:16px;font-family:DejaVuSans;-inkscape-font-specification:DejaVuSans;writing-mode:lr-tb;fill:#000000;fill-opacity:1;fill-rule:nonzero;stroke:none"
             id="text990"><tspan
               x="0 12.32 22.112 32.256001 37.344002 42.431999"
               y="0"
               sodipodi:role="line"
               id="tspan988">Don. 0</tspan></text>
        </g>
        <path
           d="M 396.41587,60.063625 H 520.6315 c 2.13333,0 3.2,1.066667 3.2,3.2 v 68.853125 c 0,2.13333 -1.06667,3.2 -3.2,3.2 H 396.41587 c -2.13333,0 -3.2,-1.06667 -3.2,-3.2 V 63.263625 c 0,-2.133333 1.06667,-3.2 3.2,-3.2 z"
           style="fill:#ffffff;fill-opacity:0.8;fill-rule:nonzero;stroke:#cccccc;stroke-width:1;stroke-linecap:butt;stroke-linejoin:miter;stroke-miterlimit:10;stroke-dasharray:none;stroke-opacity:0.8"
           id="path992" />
        <g
           id="g994"
           transform="translate(422.71119,116.7605)">
          <text
             transform="scale(1,-1)"
             style="font-variant:normal;font-weight:normal;font-size:16px;font-family:DejaVuSans;-inkscape-font-specification:DejaVuSans;writing-mode:lr-tb;fill:#000000;fill-opacity:1;fill-rule:nonzero;stroke:none"
             id="text998"><tspan
               x="0 10.40125 20.241249 30.04925 36.625252 41.713249 52.881248 62.721249 67.16925"
               y="0"
               sodipodi:role="line"
               id="tspan996">Rear Cell</tspan></text>
        </g>
        <path
           d="m 399.61588,98.876125 h 16 16"
           style="fill:none;stroke:#88ccee;stroke-width:2;stroke-linecap:square;stroke-linejoin:round;stroke-miterlimit:10;stroke-dasharray:none;stroke-opacity:1"
           id="path1000" />
        <g
           id="g1002"
           transform="translate(444.41587,93.276125)">
          <text
             transform="scale(1,-1)"
             style="font-variant:normal;font-weight:normal;font-size:16px;font-family:DejaVuSans;-inkscape-font-specification:DejaVuSans;writing-mode:lr-tb;fill:#000000;fill-opacity:1;fill-rule:nonzero;stroke:none"
             id="text1006"><tspan
               x="0 10.66275 19.462749 28.262751 33.35075 38.438751 48.61475 58.790749"
               y="0"
               sodipodi:role="line"
               id="tspan1004">Acc. 973</tspan></text>
        </g>
        <path
           d="m 399.61588,75.39175 h 16 16"
           style="fill:none;stroke:#3652ac;stroke-width:2;stroke-linecap:square;stroke-linejoin:round;stroke-miterlimit:10;stroke-dasharray:none;stroke-opacity:1"
           id="path1008" />
        <g
           id="g1010"
           transform="translate(444.41587,69.79175)">
          <text
             transform="scale(1,-1)"
             style="font-variant:normal;font-weight:normal;font-size:16px;font-family:DejaVuSans;-inkscape-font-specification:DejaVuSans;writing-mode:lr-tb;fill:#000000;fill-opacity:1;fill-rule:nonzero;stroke:none"
             id="text1014"><tspan
               x="0 12.32 22.112 32.256001 37.344002 42.431999 52.608002 62.784"
               y="0"
               sodipodi:role="line"
               id="tspan1012">Don. 690</tspan></text>
        </g>
      </g>
    </g>
    <g
       id="g1115"
       inkscape:label="tandem_A660_D873_uv_vis_smear08"
       transform="matrix(0.35277777,0,0,-0.35277777,11.920521,193.16585)">
      <path
         d="M 48.371875,53.66875 H 383.17187 v 181.44 H 48.371875 Z"
         style="fill:#ffffff;fill-opacity:1;fill-rule:nonzero;stroke:none"
         id="path1117" />
      <path
         d="m 115.33187,53.66875 v -8"
         style="fill:#000000;fill-opacity:1;fill-rule:nonzero;stroke:#000000;stroke-width:1.5;stroke-linecap:butt;stroke-linejoin:round;stroke-miterlimit:10;stroke-dasharray:none;stroke-opacity:1"
         id="path1119" />
      <g
         id="g1121"
         transform="translate(100.05063,30.0125)">
        <text
           transform="scale(1,-1)"
           style="font-variant:normal;font-weight:normal;font-size:16px;font-family:DejaVuSans;-inkscape-font-specification:DejaVuSans;writing-mode:lr-tb;fill:#000000;fill-opacity:1;fill-rule:nonzero;stroke:none"
           id="text1125"><tspan
             x="0 10.176 20.351999"
             y="0"
             sodipodi:role="line"
             id="tspan1123">400</tspan></text>
      </g>
      <path
         d="m 204.61187,53.66875 v -8"
         style="fill:#000000;fill-opacity:1;fill-rule:nonzero;stroke:#000000;stroke-width:1.5;stroke-linecap:butt;stroke-linejoin:round;stroke-miterlimit:10;stroke-dasharray:none;stroke-opacity:1"
         id="path1127" />
      <g
         id="g1129"
         transform="translate(189.33062,30.0125)">
        <text
           transform="scale(1,-1)"
           style="font-variant:normal;font-weight:normal;font-size:16px;font-family:DejaVuSans;-inkscape-font-specification:DejaVuSans;writing-mode:lr-tb;fill:#000000;fill-opacity:1;fill-rule:nonzero;stroke:none"
           id="text1133"><tspan
             x="0 10.176 20.351999"
             y="0"
             sodipodi:role="line"
             id="tspan1131">600</tspan></text>
      </g>
      <path
         d="m 293.89187,53.66875 v -8"
         style="fill:#000000;fill-opacity:1;fill-rule:nonzero;stroke:#000000;stroke-width:1.5;stroke-linecap:butt;stroke-linejoin:round;stroke-miterlimit:10;stroke-dasharray:none;stroke-opacity:1"
         id="path1135" />
      <g
         id="g1137"
         transform="translate(278.61063,30.0125)">
        <text
           transform="scale(1,-1)"
           style="font-variant:normal;font-weight:normal;font-size:16px;font-family:DejaVuSans;-inkscape-font-specification:DejaVuSans;writing-mode:lr-tb;fill:#000000;fill-opacity:1;fill-rule:nonzero;stroke:none"
           id="text1141"><tspan
             x="0 10.176 20.351999"
             y="0"
             sodipodi:role="line"
             id="tspan1139">800</tspan></text>
      </g>
      <path
         d="m 383.17187,53.66875 v -8"
         style="fill:#000000;fill-opacity:1;fill-rule:nonzero;stroke:#000000;stroke-width:1.5;stroke-linecap:butt;stroke-linejoin:round;stroke-miterlimit:10;stroke-dasharray:none;stroke-opacity:1"
         id="path1143" />
      <g
         id="g1145"
         transform="translate(362.79687,30.0125)">
        <text
           transform="scale(1,-1)"
           style="font-variant:normal;font-weight:normal;font-size:16px;font-family:DejaVuSans;-inkscape-font-specification:DejaVuSans;writing-mode:lr-tb;fill:#000000;fill-opacity:1;fill-rule:nonzero;stroke:none"
           id="text1149"><tspan
             x="0 10.176 20.351999 30.528"
             y="0"
             sodipodi:role="line"
             id="tspan1147">1000</tspan></text>
      </g>
      <g
         id="g1151"
         transform="translate(146.62344,10.528125)">
        <text
           transform="scale(1,-1)"
           style="font-variant:normal;font-weight:normal;font-size:16px;font-family:DejaVuSans;-inkscape-font-specification:DejaVuSans;writing-mode:lr-tb;fill:#000000;fill-opacity:1;fill-rule:nonzero;stroke:none"
           id="text1155"><tspan
             x="0 14.808375 24.616375 34.088375 43.928375 48.376373 58.216373 68.360374 78.520378 84.792374 94.936378 100.02438 106.26437 116.40838 131.99237"
             y="0"
             sodipodi:role="line"
             id="tspan1153">Wavelength (nm)</tspan></text>
      </g>
      <path
         d="m 48.371875,53.895267 h -8"
         style="fill:#000000;fill-opacity:1;fill-rule:nonzero;stroke:#000000;stroke-width:1.5;stroke-linecap:butt;stroke-linejoin:round;stroke-miterlimit:10;stroke-dasharray:none;stroke-opacity:1"
         id="path1157" />
      <g
         id="g1159"
         transform="translate(26.684375,47.817142)">
        <text
           transform="scale(1,-1)"
           style="font-variant:normal;font-weight:normal;font-size:16px;font-family:DejaVuSans;-inkscape-font-specification:DejaVuSans;writing-mode:lr-tb;fill:#000000;fill-opacity:1;fill-rule:nonzero;stroke:none"
           id="text1163"><tspan
             x="0"
             y="0"
             id="tspan1161">0</tspan></text>
      </g>
      <path
         d="m 48.371875,99.198638 h -8"
         style="fill:#000000;fill-opacity:1;fill-rule:nonzero;stroke:#000000;stroke-width:1.5;stroke-linecap:butt;stroke-linejoin:round;stroke-miterlimit:10;stroke-dasharray:none;stroke-opacity:1"
         id="path1165" />
      <g
         id="g1167"
         transform="translate(26.684375,93.120513)">
        <text
           transform="scale(1,-1)"
           style="font-variant:normal;font-weight:normal;font-size:16px;font-family:DejaVuSans;-inkscape-font-specification:DejaVuSans;writing-mode:lr-tb;fill:#000000;fill-opacity:1;fill-rule:nonzero;stroke:none"
           id="text1171"><tspan
             x="0"
             y="0"
             id="tspan1169">1</tspan></text>
      </g>
      <path
         d="m 48.371875,144.50201 h -8"
         style="fill:#000000;fill-opacity:1;fill-rule:nonzero;stroke:#000000;stroke-width:1.5;stroke-linecap:butt;stroke-linejoin:round;stroke-miterlimit:10;stroke-dasharray:none;stroke-opacity:1"
         id="path1173" />
      <g
         id="g1175"
         transform="translate(26.684375,138.42388)">
        <text
           transform="scale(1,-1)"
           style="font-variant:normal;font-weight:normal;font-size:16px;font-family:DejaVuSans;-inkscape-font-specification:DejaVuSans;writing-mode:lr-tb;fill:#000000;fill-opacity:1;fill-rule:nonzero;stroke:none"
           id="text1179"><tspan
             x="0"
             y="0"
             id="tspan1177">2</tspan></text>
      </g>
      <path
         d="m 48.371875,189.80538 h -8"
         style="fill:#000000;fill-opacity:1;fill-rule:nonzero;stroke:#000000;stroke-width:1.5;stroke-linecap:butt;stroke-linejoin:round;stroke-miterlimit:10;stroke-dasharray:none;stroke-opacity:1"
         id="path1181" />
      <g
         id="g1183"
         transform="translate(26.684375,183.72725)">
        <text
           transform="scale(1,-1)"
           style="font-variant:normal;font-weight:normal;font-size:16px;font-family:DejaVuSans;-inkscape-font-specification:DejaVuSans;writing-mode:lr-tb;fill:#000000;fill-opacity:1;fill-rule:nonzero;stroke:none"
           id="text1187"><tspan
             x="0"
             y="0"
             id="tspan1185">3</tspan></text>
      </g>
      <path
         d="m 48.371875,235.10875 h -8"
         style="fill:#000000;fill-opacity:1;fill-rule:nonzero;stroke:#000000;stroke-width:1.5;stroke-linecap:butt;stroke-linejoin:round;stroke-miterlimit:10;stroke-dasharray:none;stroke-opacity:1"
         id="path1189" />
      <g
         id="g1191"
         transform="translate(26.684375,229.03062)">
        <text
           transform="scale(1,-1)"
           style="font-variant:normal;font-weight:normal;font-size:16px;font-family:DejaVuSans;-inkscape-font-specification:DejaVuSans;writing-mode:lr-tb;fill:#000000;fill-opacity:1;fill-rule:nonzero;stroke:none"
           id="text1195"><tspan
             x="0"
             y="0"
             id="tspan1193">4</tspan></text>
      </g>
      <g
         id="g1197"
         transform="rotate(90,-25.051406,44.407656)">
        <text
           transform="scale(1,-1)"
           style="font-variant:normal;font-weight:normal;font-size:16px;font-family:DejaVuSans;-inkscape-font-specification:DejaVuSans;writing-mode:lr-tb;fill:#000000;fill-opacity:1;fill-rule:nonzero;stroke:none"
           id="text1201"><tspan
             x="0 12.592 20.927999 29.728001 34.175999 38.624001 43.071999 52.880001 59.152 68.944 75.519997 80.608002 90.767998 97.040001 103.27225 113.11225 123.25625 133.41624 139.68825"
             y="0"
             sodipodi:role="line"
             id="tspan1199">Oscillator Strength</tspan></text>
      </g>
      <g
         id="g1203">
        <g
           id="g1205"
           clip-path="url(#clipPath1209)">
          <path
             d="m 532.0315,54.174852 -194.19771,0.190524 -67.649,0.262301 -30.97279,0.312292 -18.6117,0.393394 -11.18535,0.43502 -7.82708,0.505948 -6.18729,0.639291 -3.57551,0.544817 -3.478,0.740794 -2.26644,0.656196 -2.22597,0.847487 -2.18657,1.12504 -1.07884,0.707482 -1.06938,0.836021 -1.06003,0.998173 -1.05082,1.205414 -1.04172,1.474028 -1.03274,1.827447 -1.02387,2.299791 -1.01512,2.941147 -1.00649,3.824933 -0.99795,5.056512 -0.98954,6.776868 -0.98121,9.137459 -0.97301,12.171549 -2.87077,45.67983 -0.94117,2.82939 -0.93346,-9.3688 -1.84415,-31.70958 -0.91087,-12.96616 -0.90353,-9.717286 -0.89627,-7.040467 -0.8891,-5.041484 -0.88202,-3.592793 -0.87501,-2.545655 -0.8681,-1.781691 -0.86127,-1.213769 -0.85451,-0.776056 -0.84783,-0.415995 -0.84123,-0.091 -0.83472,0.232048 -0.82827,0.577979 -0.82189,0.966272 -0.8156,1.41467 -0.80938,1.941372 -0.80321,2.564125 -0.79714,3.294027 -0.79111,4.120051 -0.78517,4.978133 -2.32048,17.027579 -0.76204,3.50671 -0.75641,0.61437 -0.75085,-2.48981 -0.74534,-4.81921 -2.20364,-17.250209 -0.72394,-4.56306 -0.71873,-3.732706 -0.71358,-2.986077 -0.70848,-2.35076 -0.70344,-1.821703 -0.69845,-1.382008 -0.69351,-1.012491 -0.68863,-0.695394 -0.6838,-0.415433 -0.67901,-0.159806 -0.67429,0.0821 -0.6696,0.318931 -0.66496,0.557237 -0.66038,0.800949 -0.65585,1.050203 -1.29825,2.836769 -1.28065,3.639629 -3.12693,9.532821 -0.61291,1.412958 -0.60886,0.913699 -0.60484,0.237502 -0.60087,-0.486845 -0.59692,-1.07362 -1.7675,-3.835541 -0.58155,-0.614513 -0.57779,-0.03123 -0.57407,0.600256 -0.5704,1.218734 -1.12989,3.803086 -0.55956,2.013039 -0.55602,1.47635 -0.55252,0.444137 -0.54904,-0.881728 -0.5456,-2.150387 -1.081,-6.528367 -1.06761,-6.725362 -1.05447,-5.33604 -1.04157,-3.848194 -1.02891,-2.701694 -1.01647,-1.891399 -1.00427,-1.323126 -0.99227,-0.913461 -0.9805,-0.603088 -0.96892,-0.351047 -0.957565,-0.127473 -0.946394,0.09206 -0.935421,0.330513 -0.924639,0.611051 -0.914041,0.952869 -0.903624,1.349786 -1.336292,2.624797 -0.878349,1.597266 -0.435485,0.518233 -0.433051,0.266 -0.430638,0.03407 -1.698828,-0.459415 -0.418874,0.147331 -0.416578,0.332828 -0.826345,1.155435 -0.817388,1.376257 -0.40538,0.506774 -0.403194,0.248708 -0.401027,-0.04829 -0.398877,-0.308373 -1.574347,-1.776559 -0.38838,-0.153867 -0.386331,0.02762 -0.766578,0.504832 -1.134895,1.043576 -0.374367,0.176402 -0.372429,0.03554 -0.739097,-0.265834 -0.731516,-0.332588 -0.362952,-0.02804 -0.3611,0.131975 -0.359263,0.327891 -0.357439,0.553366 -0.355629,0.806566 -0.705883,2.480094 -0.698807,3.759533 -1.035172,7.598577 -0.681575,4.828614 -0.338262,1.652479 -0.336597,0.896977 -0.334942,0.128987 -0.3333,-0.497801 -0.661724,-2.006675 -1.304266,-4.325857 -0.642728,-1.178688 -0.319051,-0.132653 -0.317526,0.184837 -0.630514,1.108236 -0.934592,1.974208 -0.921429,1.173011 -0.607109,0.547524 -0.301432,-0.04119 -0.300031,-0.415038 -0.595893,-1.850671 -0.5904,-2.023013 -0.293165,-0.566946 -0.29182,-0.09335 -0.290484,0.439364 -0.289158,0.981186 -0.574373,3.358014 -0.851834,5.385371 -0.281387,0.411115 -0.280122,-0.796304 -0.278866,-1.949114 -0.829146,-9.346002 -0.818138,-8.5594 -0.539419,-4.046823 -0.534688,-2.845897 -0.530017,-1.857009 -0.525409,-1.041922 -0.520859,-0.371965 -0.51637,0.110516 -0.766261,0.288173 -0.253237,-0.104024 -0.503242,-0.657863 -1.239565,-2.315085 -0.488549,-0.51168 -0.48447,-0.229855 -0.719166,-0.007 -0.945077,0.154396 -0.466728,0.244788 -0.462919,0.503625 -1.14093,1.652113 -0.225426,-0.04208 -0.224519,-0.2958 -0.446338,-1.258103 -1.317801,-4.593858 -0.647227,-1.408725 -0.639627,-0.931564 -0.841245,-0.800124 -1.033356,-0.614223 -1.214095,-0.451612 -1.770082,-0.402416 -2.638107,-0.343825 -4.22255,-0.293013 -7.033313,-0.23502 L 13.535459,54.03052 -1,53.953321 v 0"
             style="fill:none;stroke:#882255;stroke-width:2;stroke-linecap:square;stroke-linejoin:round;stroke-miterlimit:10;stroke-dasharray:none;stroke-opacity:1"
             id="path1211" />
        </g>
      </g>
      <g
         id="g1213">
        <g
           id="g1215"
           clip-path="url(#clipPath1219)">
          <path
             d="m 532.0315,54.158883 -240.47409,0.176623 -73.83861,0.246083 -32.75615,0.305779 -17.58018,0.363006 -10.10644,0.402964 -5.98267,0.414526 -4.07835,0.456037 -3.15271,0.552558 -2.30323,0.608401 -2.2526,0.870552 -2.20364,1.176282 -2.15625,1.183707 -1.41192,0.406955 -1.39196,-0.02934 -3.39533,-0.52799 -1.32534,0.07277 -1.3072,0.309851 -1.2894,0.56268 -1.27199,0.850183 -1.25491,1.205246 -1.23818,1.672787 -1.22177,2.3079 -1.20571,3.15453 -1.18994,4.154268 -2.33382,9.400394 -0.57407,1.517575 -0.5704,0.841288 -0.56675,0.235611 -1.1227,-0.311002 -0.55602,0.07952 -0.55252,0.588732 -0.54904,1.286809 -0.5456,2.124346 -0.54219,3.051914 -1.07427,8.749062 -1.06101,9.66065 -0.52561,2.94504 -0.52238,0.37986 -0.51919,-2.38065 -0.51602,-4.46618 -1.52936,-15.891269 -1.00427,-7.493651 -0.49762,-2.579251 -0.49465,-1.910157 -0.49171,-1.324402 -0.48879,-0.802858 -0.48589,-0.321348 -0.48303,0.146605 -0.480193,0.630232 -0.477372,1.164074 -0.474581,1.792532 -0.471813,2.577163 -0.46907,3.608066 -0.466351,5.020976 -0.463656,7.019098 -0.460983,9.88361 -0.458334,13.89474 -0.90881,41.74628 -0.450521,20.16233 -0.447962,6.03425 -0.445423,-11.07625 -0.883319,-33.32668 -0.437937,-9.53898 -0.435485,-3.96829 -0.433051,0.77674 -0.430638,4.91288 -0.428247,8.66166 -1.270581,36.96668 -0.418874,4.24239 -0.416578,-6.27437 -2.049113,-67.2087 -0.804221,-11.63794 -0.398877,-3.42866 -0.396744,-2.320049 -0.394628,-1.440523 -0.392528,-0.699524 -0.390447,-0.0317 -0.38838,0.594944 -0.386331,1.176326 -0.766578,3.711956 -1.134895,6.18718 -0.374367,1.40061 -0.372429,0.79482 -0.370503,0.0475 -0.368594,-0.79009 -0.366698,-1.58162 -1.805572,-10.005832 -0.355629,-0.747374 -0.353833,-0.148545 -0.35205,0.42464 -0.350281,0.972382 -0.348526,1.515659 -0.691836,4.75226 -0.684969,6.97942 -1.014801,10.85424 -0.334942,2.16424 -0.3333,1.09243 -0.331671,0.15664 -0.330053,-0.54378 -0.655299,-2.3905 -0.971105,-4.21994 -0.32059,-0.81892 -0.319051,-0.35395 -0.317526,0.0415 -0.943525,0.64686 -0.311527,0.0378 -0.310054,0.18795 -0.308592,0.69922 -0.307139,1.58384 -0.305698,2.75721 -0.607109,9.17727 -0.601463,10.25689 -0.298637,2.27822 -0.297256,-1.25116 -0.295882,-4.6288 -1.459145,-31.13903 -0.574373,-6.07054 -0.285232,-1.64436 -0.283942,-0.79548 -0.28266,0.0329 -0.281387,0.86663 -0.280122,1.72246 -0.556485,6.04628 -1.098162,16.45167 -0.271503,1.58608 -0.270305,-0.54328 -0.269114,-2.41953 -1.590114,-20.57277 -0.779602,-5.887649 -0.769564,-4.106703 -0.507561,-1.594553 -0.503242,-0.7415 -0.498977,-0.148507 -0.494767,0.295386 -0.73437,0.97586 -1.203636,1.893007 -0.237736,0.0657 L 51.124238,93.797899 50.653652,92.671844 50.186924,91.414271 49.954991,91.051097 49.724005,90.930492 49.03667,91.265559 48.809413,91.070937 48.583075,90.396922 48.13313,87.227141 46.368991,68.984549 45.721764,65.292961 45.082137,62.85233 44.449976,61.176928 43.618485,59.652548 42.799737,58.612102 41.79378,57.70863 40.611544,56.966517 39.076022,56.304885 37.219323,55.766486 34.73036,55.292486 31.219902,54.877047 26.184708,54.532308 18.64546,54.260281 6.215468,54.058137 -1,53.999686 v 0"
             style="fill:none;stroke:#cc6677;stroke-width:2;stroke-linecap:square;stroke-linejoin:round;stroke-miterlimit:10;stroke-dasharray:none;stroke-opacity:1"
             id="path1221" />
        </g>
      </g>
      <g
         id="g1223">
        <g
           id="g1225"
           clip-path="url(#clipPath1229)">
          <path
             d="m 532.0315,54.858065 -63.08132,0.303089 -42.38588,0.407476 -24.69542,0.427738 -18.75391,0.533222 -13.94822,0.626775 -9.90218,0.66243 -6.35327,0.58048 -6.16503,0.73937 -5.98503,0.961495 -5.81279,1.279217 -2.84412,0.801915 -2.80378,0.941759 -2.76428,1.11248 -2.72563,1.321054 -2.68777,1.575114 -2.65069,1.881775 -2.61439,2.244844 -2.57882,2.65903 -2.54396,3.09934 -2.50982,3.504536 -4.91991,7.443748 -2.41141,3.095413 -2.37988,1.903308 -2.34897,0.266688 -2.31867,-1.415432 -2.28894,-2.716411 -4.49095,-7.003594 -2.20312,-3.3705 -2.17557,-2.976532 -2.14854,-2.527348 -2.12202,-2.093604 -2.09599,-1.705799 -2.07042,-1.371833 -2.04533,-1.088769 -2.02068,-0.849412 -1.99649,-0.64555 -1.97271,-0.469358 -1.94937,-0.313853 -1.92644,-0.172937 -1.90391,-0.04124 -1.88176,0.08609 -1.86002,0.213631 -1.83863,0.345921 -1.81762,0.487694 -1.79697,0.644107 -1.77666,0.820973 -1.7567,1.024933 -1.73707,1.263518 -1.71777,1.544944 -1.69879,1.877278 -1.68012,2.266415 -1.66176,2.711777 -1.64369,3.198359 -1.62593,3.683982 -4.774,12.396557 -1.55765,3.343532 -1.54126,2.18519 -1.52512,0.82441 -1.50923,-0.4251 -1.49359,-1.38467 -1.47819,-2.077554 -1.46304,-2.618609 -1.4481,-3.071695 -2.85233,-6.970781 -2.79528,-6.814449 -1.37678,-2.977581 -1.36314,-2.614959 -1.34972,-2.255678 -1.33649,-1.924845 -1.32345,-1.632983 -1.31059,-1.38179 -1.29794,-1.168455 -1.28545,-0.988323 -2.53418,-1.544061 -2.48637,-1.102699 -2.4399,-0.774934 -2.39471,-0.519695 -2.35077,-0.307627 -2.30803,-0.116349 -2.26644,0.07304 -2.22597,0.277813 -2.18657,0.511818 -2.14822,0.774072 -2.11085,1.015864 -3.09833,1.555071 -1.01512,0.338215 -1.00649,0.17808 -0.99795,0.01677 -1.97075,-0.292203 -1.93791,-0.344448 -1.90587,-0.04879 -0.94117,0.142996 -0.93346,0.27097 -0.92584,0.408985 -0.91831,0.557958 -0.91087,0.719806 -0.90353,0.896417 -0.89627,1.088403 -0.8891,1.293446 -1.75703,3.210308 -1.72937,3.872444 -3.37829,8.282657 -0.82827,2.411978 -0.82189,2.879689 -0.8156,3.509517 -1.61259,8.800151 -0.79714,4.52823 -0.79111,3.52752 -0.78517,1.54737 -0.77929,-0.98121 -0.77347,-3.26788 -3.03702,-18.800673 -0.74534,-3.378354 -0.73991,-2.620954 -0.73453,-1.953041 -0.7292,-1.390372 -0.72394,-0.925343 -0.71873,-0.541257 -0.71358,-0.222852 -0.70848,0.03538 -1.40189,0.543751 -0.69351,0.29096 -0.68863,0.120745 -0.6838,-0.170972 -0.67901,-0.516121 -0.67429,-0.820831 -2.65079,-3.806221 -0.65135,-0.558731 -0.6469,-0.321673 -0.6425,-0.101388 -0.63815,0.08136 -1.26341,0.512765 -1.86352,1.15236 -1.82661,1.566782 -0.60087,0.497864 -0.59692,0.324583 -0.59302,0.02642 -0.58915,-0.353864 -0.58533,-0.732054 -1.15934,-2.204056 -1.71122,-3.427954 -1.1227,-1.809848 -1.10854,-1.448123 -1.09464,-1.056051 -1.081,-0.574372 -0.53546,-0.08576 -0.53215,0.05562 -0.52886,0.201462 -0.52561,0.351301 -1.04157,1.156594 -1.02891,1.69355 -1.52012,2.786042 -0.50062,0.678079 -0.49762,0.418351 -0.49465,0.115275 -0.49171,-0.187996 -0.48879,-0.444717 -2.872879,-3.549597 -1.399077,-0.934786 -1.375024,-0.876838 -2.680328,-1.99114 -0.873422,-0.184519 -0.863689,0.224741 -0.85412,0.561791 -1.263582,0.973965 -0.830879,0.39326 -1.229432,0.451274 -0.808574,0.678041 -0.799904,1.223543 -0.791372,1.744325 -1.557686,3.756018 -0.766578,1.161944 -0.758572,0.535086 -1.493622,0.576074 -0.735292,0.742595 -0.72777,1.299045 -0.720363,1.908848 -0.713068,2.501246 -1.40469,6.051282 -1.035172,5.59827 -1.356434,7.926976 -0.334942,1.11878 -0.3333,0.61799 -0.331671,0.18793 -0.330053,-0.15785 -0.328447,-0.46056 -0.326852,-0.76412 -0.648967,-2.38837 -1.279305,-5.313447 -0.630514,-1.586296 -0.934592,-1.523953 -0.615731,-0.467452 -0.305698,0.04111 -0.304266,0.255556 -0.604275,1.121578 -0.895924,2.652287 -0.883565,3.307747 -1.159302,4.45354 -0.571765,1.7355 -0.283942,0.63204 -0.28266,0.34249 -0.281387,-0.047 -0.280122,-0.48056 -0.556485,-2.07141 -1.369665,-6.575742 -1.074107,-3.63538 -0.530017,-1.38705 -0.525409,-0.797289 -0.520859,-0.201729 -0.772889,0.05816 -0.255418,-0.181449 -0.254324,-0.391757 -0.505395,-1.497218 -1.244828,-4.941355 -0.245821,-0.313544 -0.244787,0.103075 -0.243762,0.533046 -0.48447,2.175016 -0.719166,3.724396 -0.237736,0.41898 L 51.124238,91.410553 50.88846,90.462489 50.419809,87.253898 48.809413,74.73794 47.686792,67.840452 46.804765,63.709002 46.152396,61.607631 45.507717,60.139353 44.659875,58.805381 43.825151,57.901075 42.799737,57.121029 41.594875,56.484011 40.030352,55.918969 37.953856,55.425508 35.078347,54.997252 31.059002,54.643585 25.043875,54.355055 15.277611,54.131176 -1,53.983839 v 0"
             style="fill:none;stroke:#88ccee;stroke-width:2;stroke-linecap:square;stroke-linejoin:round;stroke-miterlimit:10;stroke-dasharray:none;stroke-opacity:1"
             id="path1231" />
        </g>
      </g>
      <g
         id="g1233">
        <g
           id="g1235"
           clip-path="url(#clipPath1239)">
          <path
             d="m 532.0315,54.075308 -188.29974,0.174503 -54.43413,0.23683 -25.03141,0.301827 -14.80201,0.393347 -8.59045,0.427817 -6.53982,0.549531 -4.72321,0.635809 -3.06638,0.604631 -3.00282,0.836694 -1.47819,0.544653 -1.46304,0.66101 -1.4481,0.8129 -1.4334,1.014715 -1.41893,1.288251 -1.40466,1.667362 -1.39062,2.20609 -1.37678,2.993171 -1.36314,4.178098 -1.34972,6.016992 -1.33649,8.943579 -1.32345,13.620512 -1.31059,20.62604 -2.58339,55.03384 -1.27316,3.20317 -1.26102,-23.82117 -1.24908,-29.19529 -1.23729,-22.21379 -1.22568,-14.787859 -1.21422,-9.670783 -1.20292,-6.452863 -1.19179,-4.43712 -1.1808,-3.145059 -1.16997,-2.291393 -1.15928,-1.709748 -1.14875,-1.3018 -1.13835,-1.007979 -1.12809,-0.79116 -2.22597,-1.129077 -2.18657,-0.725651 -2.14822,-0.462902 -3.15257,-0.361221 -3.07173,-0.06536 -2.99398,0.19539 -2.91912,0.487767 -1.90587,0.535921 -1.87463,0.766717 -1.84415,1.081388 -1.8144,1.511513 -1.78537,2.070799 -1.75703,2.680411 -2.58388,4.378508 -0.84783,1.063157 -0.84123,0.607974 -0.83472,0.07214 -0.82827,-0.448264 -0.82189,-0.874039 -1.62498,-2.498879 -2.39146,-3.979132 -1.56446,-2.113152 -1.54119,-1.568484 -1.51845,-1.101407 -1.49619,-0.733808 -1.47444,-0.444218 -1.45314,-0.203156 -1.43231,0.01608 -1.41192,0.234476 -1.39196,0.462356 -1.37243,0.686716 -2.0229,1.324822 -3.27944,2.22754 -1.28065,0.640461 -0.63384,0.1799 -0.62957,0.03849 -0.62534,-0.13195 -0.62116,-0.307327 -1.22993,-1.006295 -1.81457,-1.661982 -1.18994,-0.772362 -1.17448,-0.405882 -1.15934,-0.04664 -1.14447,0.292544 -1.12989,0.588074 -2.21714,1.392895 -1.08779,0.281693 -2.13528,0.04171 -0.52561,0.156835 -0.52238,0.287019 -0.51919,0.441956 -0.51602,0.619548 -0.51289,0.81949 -1.01647,2.321498 -1.00427,3.27279 -1.48398,5.523529 -0.48879,1.227024 -0.48589,0.502622 -0.48303,-0.333625 -0.480193,-1.093434 -0.951953,-3.512296 -1.407234,-5.240158 -0.924639,-2.390827 -0.914041,-1.530906 -0.903624,-0.940839 -2.214641,-1.859201 -1.727421,-1.58986 -0.849394,-0.540026 -0.840061,-0.326785 -0.830879,-0.122266 -0.821848,0.07918 -0.812964,0.293934 -0.804221,0.539136 -0.795621,0.819855 -1.177603,1.716613 -1.159009,1.644224 -0.38228,0.296075 -0.380279,0.113175 -0.378293,-0.05672 -0.75069,-0.443744 -2.926357,-2.177889 -0.713068,-0.289837 -0.705883,-0.0035 -1.04559,0.382205 -0.688389,0.246445 -0.681575,0.019 -2.004825,-0.431709 -1.304266,0.191554 -0.642728,-0.271108 -2.201683,-1.69495 -0.615731,0.0085 -0.912807,0.375663 -0.601463,0.216294 -0.595893,-0.02964 -0.883565,-0.436963 -2.015009,-1.206434 -1.123035,-0.286077 -1.103071,-0.07425 -0.544213,0.13938 -0.539419,0.310034 -0.800276,0.789821 -1.050832,1.509026 -1.032754,1.982033 -2.013105,4.298093 -0.737468,0.922505 -0.486504,0.3298 -0.482449,-0.05465 -0.716181,-0.63195 -0.707341,-0.519 -0.466728,-0.0058 -0.922074,0.272902 -0.22818,-0.09967 L 48.583075,66.927788 48.13313,65.826716 47.244018,62.698972 46.368991,59.752261 45.721764,58.224317 45.082137,57.194506 44.240892,56.311719 43.412614,55.753407 42.193863,55.236102 40.611544,54.842454 38.325166,54.528185 34.73036,54.282104 28.253766,54.095143 14.724754,53.968985 -1,53.923701 v 0"
             style="fill:none;stroke:#3652ac;stroke-width:2;stroke-linecap:square;stroke-linejoin:round;stroke-miterlimit:10;stroke-dasharray:none;stroke-opacity:1"
             id="path1241" />
        </g>
      </g>
      <g
         id="g1243">
        <path
           d="m 48.371875,53.66875 v 181.44"
           style="fill:none;stroke:#000000;stroke-width:1.5;stroke-linecap:square;stroke-linejoin:miter;stroke-miterlimit:10;stroke-dasharray:none;stroke-opacity:1"
           id="path1245" />
        <path
           d="m 383.17187,53.66875 v 181.44"
           style="fill:none;stroke:#000000;stroke-width:1.5;stroke-linecap:square;stroke-linejoin:miter;stroke-miterlimit:10;stroke-dasharray:none;stroke-opacity:1"
           id="path1247" />
        <path
           d="M 48.371875,53.66875 H 383.17187"
           style="fill:none;stroke:#000000;stroke-width:1.5;stroke-linecap:square;stroke-linejoin:miter;stroke-miterlimit:10;stroke-dasharray:none;stroke-opacity:1"
           id="path1249" />
        <path
           d="M 48.371875,235.10875 H 383.17187"
           style="fill:none;stroke:#000000;stroke-width:1.5;stroke-linecap:square;stroke-linejoin:miter;stroke-miterlimit:10;stroke-dasharray:none;stroke-opacity:1"
           id="path1251" />
        <path
           d="M 396.41587,141.71162 H 500.2565 c 2.13333,0 3.2,1.06667 3.2,3.2 v 68.85313 c 0,2.13333 -1.06667,3.2 -3.2,3.2 H 396.41587 c -2.13333,0 -3.2,-1.06667 -3.2,-3.2 v -68.85313 c 0,-2.13333 1.06667,-3.2 3.2,-3.2 z"
           style="fill:#ffffff;fill-opacity:0.8;fill-rule:nonzero;stroke:#cccccc;stroke-width:1;stroke-linecap:butt;stroke-linejoin:miter;stroke-miterlimit:10;stroke-dasharray:none;stroke-opacity:0.8"
           id="path1253" />
        <g
           id="g1255"
           transform="translate(410.57837,198.4085)">
          <text
             transform="scale(1,-1)"
             style="font-variant:normal;font-weight:normal;font-size:16px;font-family:DejaVuSans;-inkscape-font-specification:DejaVuSans;writing-mode:lr-tb;fill:#000000;fill-opacity:1;fill-rule:nonzero;stroke:none"
             id="text1259"><tspan
               x="0 8.0437498 14.276 24.068001 34.212002 40.484001 45.571999 56.740002 66.580002 71.028"
               y="0"
               sodipodi:role="line"
               id="tspan1257">Front Cell</tspan></text>
        </g>
        <path
           d="m 399.61588,180.52412 h 16 16"
           style="fill:none;stroke:#882255;stroke-width:2;stroke-linecap:square;stroke-linejoin:round;stroke-miterlimit:10;stroke-dasharray:none;stroke-opacity:1"
           id="path1261" />
        <g
           id="g1263"
           transform="translate(444.41587,174.92412)">
          <text
             transform="scale(1,-1)"
             style="font-variant:normal;font-weight:normal;font-size:16px;font-family:DejaVuSans;-inkscape-font-specification:DejaVuSans;writing-mode:lr-tb;fill:#000000;fill-opacity:1;fill-rule:nonzero;stroke:none"
             id="text1267"><tspan
               x="0 10.66275 19.462749 28.262751 33.35075 38.438751"
               y="0"
               sodipodi:role="line"
               id="tspan1265">Acc. 0</tspan></text>
        </g>
        <path
           d="m 399.61588,157.03975 h 16 16"
           style="fill:none;stroke:#cc6677;stroke-width:2;stroke-linecap:square;stroke-linejoin:round;stroke-miterlimit:10;stroke-dasharray:none;stroke-opacity:1"
           id="path1269" />
        <g
           id="g1271"
           transform="translate(444.41587,151.43975)">
          <text
             transform="scale(1,-1)"
             style="font-variant:normal;font-weight:normal;font-size:16px;font-family:DejaVuSans;-inkscape-font-specification:DejaVuSans;writing-mode:lr-tb;fill:#000000;fill-opacity:1;fill-rule:nonzero;stroke:none"
             id="text1275"><tspan
               x="0 12.32 22.112 32.256001 37.344002 42.431999"
               y="0"
               sodipodi:role="line"
               id="tspan1273">Don. 0</tspan></text>
        </g>
        <path
           d="M 396.41587,60.063625 H 520.6315 c 2.13333,0 3.2,1.066667 3.2,3.2 v 68.853125 c 0,2.13333 -1.06667,3.2 -3.2,3.2 H 396.41587 c -2.13333,0 -3.2,-1.06667 -3.2,-3.2 V 63.263625 c 0,-2.133333 1.06667,-3.2 3.2,-3.2 z"
           style="fill:#ffffff;fill-opacity:0.8;fill-rule:nonzero;stroke:#cccccc;stroke-width:1;stroke-linecap:butt;stroke-linejoin:miter;stroke-miterlimit:10;stroke-dasharray:none;stroke-opacity:0.8"
           id="path1277" />
        <g
           id="g1279"
           transform="translate(422.71119,116.7605)">
          <text
             transform="scale(1,-1)"
             style="font-variant:normal;font-weight:normal;font-size:16px;font-family:DejaVuSans;-inkscape-font-specification:DejaVuSans;writing-mode:lr-tb;fill:#000000;fill-opacity:1;fill-rule:nonzero;stroke:none"
             id="text1283"><tspan
               x="0 10.40125 20.241249 30.04925 36.625252 41.713249 52.881248 62.721249 67.16925"
               y="0"
               sodipodi:role="line"
               id="tspan1281">Rear Cell</tspan></text>
        </g>
        <path
           d="m 399.61588,98.876125 h 16 16"
           style="fill:none;stroke:#88ccee;stroke-width:2;stroke-linecap:square;stroke-linejoin:round;stroke-miterlimit:10;stroke-dasharray:none;stroke-opacity:1"
           id="path1285" />
        <g
           id="g1287"
           transform="translate(444.41587,93.276125)">
          <text
             transform="scale(1,-1)"
             style="font-variant:normal;font-weight:normal;font-size:16px;font-family:DejaVuSans;-inkscape-font-specification:DejaVuSans;writing-mode:lr-tb;fill:#000000;fill-opacity:1;fill-rule:nonzero;stroke:none"
             id="text1291"><tspan
               x="0 10.66275 19.462749 28.262751 33.35075 38.438751 48.61475 58.790749"
               y="0"
               sodipodi:role="line"
               id="tspan1289">Acc. 660</tspan></text>
        </g>
        <path
           d="m 399.61588,75.39175 h 16 16"
           style="fill:none;stroke:#3652ac;stroke-width:2;stroke-linecap:square;stroke-linejoin:round;stroke-miterlimit:10;stroke-dasharray:none;stroke-opacity:1"
           id="path1293" />
        <g
           id="g1295"
           transform="translate(444.41587,69.79175)">
          <text
             transform="scale(1,-1)"
             style="font-variant:normal;font-weight:normal;font-size:16px;font-family:DejaVuSans;-inkscape-font-specification:DejaVuSans;writing-mode:lr-tb;fill:#000000;fill-opacity:1;fill-rule:nonzero;stroke:none"
             id="text1299"><tspan
               x="0 12.32 22.112 32.256001 37.344002 42.431999 52.608002 62.784"
               y="0"
               sodipodi:role="line"
               id="tspan1297">Don. 873</tspan></text>
        </g>
      </g>
    </g>
    <g
       id="g1400"
       inkscape:label="tandem_A660_D698_uv_vis_smear12"
       transform="matrix(0.35277777,0,0,-0.35277777,11.920521,294.69065)">
      <path
         d="M 48.371875,53.66875 H 383.17187 v 181.44 H 48.371875 Z"
         style="fill:#ffffff;fill-opacity:1;fill-rule:nonzero;stroke:none"
         id="path1402" />
      <path
         d="m 115.33187,53.66875 v -8"
         style="fill:#000000;fill-opacity:1;fill-rule:nonzero;stroke:#000000;stroke-width:1.5;stroke-linecap:butt;stroke-linejoin:round;stroke-miterlimit:10;stroke-dasharray:none;stroke-opacity:1"
         id="path1404" />
      <g
         id="g1406"
         transform="translate(100.05063,30.0125)">
        <text
           transform="scale(1,-1)"
           style="font-variant:normal;font-weight:normal;font-size:16px;font-family:DejaVuSans;-inkscape-font-specification:DejaVuSans;writing-mode:lr-tb;fill:#000000;fill-opacity:1;fill-rule:nonzero;stroke:none"
           id="text1410"><tspan
             x="0 10.176 20.351999"
             y="0"
             sodipodi:role="line"
             id="tspan1408">400</tspan></text>
      </g>
      <path
         d="m 204.61187,53.66875 v -8"
         style="fill:#000000;fill-opacity:1;fill-rule:nonzero;stroke:#000000;stroke-width:1.5;stroke-linecap:butt;stroke-linejoin:round;stroke-miterlimit:10;stroke-dasharray:none;stroke-opacity:1"
         id="path1412" />
      <g
         id="g1414"
         transform="translate(189.33062,30.0125)">
        <text
           transform="scale(1,-1)"
           style="font-variant:normal;font-weight:normal;font-size:16px;font-family:DejaVuSans;-inkscape-font-specification:DejaVuSans;writing-mode:lr-tb;fill:#000000;fill-opacity:1;fill-rule:nonzero;stroke:none"
           id="text1418"><tspan
             x="0 10.176 20.351999"
             y="0"
             sodipodi:role="line"
             id="tspan1416">600</tspan></text>
      </g>
      <path
         d="m 293.89187,53.66875 v -8"
         style="fill:#000000;fill-opacity:1;fill-rule:nonzero;stroke:#000000;stroke-width:1.5;stroke-linecap:butt;stroke-linejoin:round;stroke-miterlimit:10;stroke-dasharray:none;stroke-opacity:1"
         id="path1420" />
      <g
         id="g1422"
         transform="translate(278.61063,30.0125)">
        <text
           transform="scale(1,-1)"
           style="font-variant:normal;font-weight:normal;font-size:16px;font-family:DejaVuSans;-inkscape-font-specification:DejaVuSans;writing-mode:lr-tb;fill:#000000;fill-opacity:1;fill-rule:nonzero;stroke:none"
           id="text1426"><tspan
             x="0 10.176 20.351999"
             y="0"
             sodipodi:role="line"
             id="tspan1424">800</tspan></text>
      </g>
      <path
         d="m 383.17187,53.66875 v -8"
         style="fill:#000000;fill-opacity:1;fill-rule:nonzero;stroke:#000000;stroke-width:1.5;stroke-linecap:butt;stroke-linejoin:round;stroke-miterlimit:10;stroke-dasharray:none;stroke-opacity:1"
         id="path1428" />
      <g
         id="g1430"
         transform="translate(362.79687,30.0125)">
        <text
           transform="scale(1,-1)"
           style="font-variant:normal;font-weight:normal;font-size:16px;font-family:DejaVuSans;-inkscape-font-specification:DejaVuSans;writing-mode:lr-tb;fill:#000000;fill-opacity:1;fill-rule:nonzero;stroke:none"
           id="text1434"><tspan
             x="0 10.176 20.351999 30.528"
             y="0"
             sodipodi:role="line"
             id="tspan1432">1000</tspan></text>
      </g>
      <g
         id="g1436"
         transform="translate(146.62344,10.528125)">
        <text
           transform="scale(1,-1)"
           style="font-variant:normal;font-weight:normal;font-size:16px;font-family:DejaVuSans;-inkscape-font-specification:DejaVuSans;writing-mode:lr-tb;fill:#000000;fill-opacity:1;fill-rule:nonzero;stroke:none"
           id="text1440"><tspan
             x="0 14.808375 24.616375 34.088375 43.928375 48.376373 58.216373 68.360374 78.520378 84.792374 94.936378 100.02438 106.26437 116.40838 131.99237"
             y="0"
             sodipodi:role="line"
             id="tspan1438">Wavelength (nm)</tspan></text>
      </g>
      <path
         d="m 48.371875,53.895267 h -8"
         style="fill:#000000;fill-opacity:1;fill-rule:nonzero;stroke:#000000;stroke-width:1.5;stroke-linecap:butt;stroke-linejoin:round;stroke-miterlimit:10;stroke-dasharray:none;stroke-opacity:1"
         id="path1442" />
      <g
         id="g1444"
         transform="translate(26.684375,47.817142)">
        <text
           transform="scale(1,-1)"
           style="font-variant:normal;font-weight:normal;font-size:16px;font-family:DejaVuSans;-inkscape-font-specification:DejaVuSans;writing-mode:lr-tb;fill:#000000;fill-opacity:1;fill-rule:nonzero;stroke:none"
           id="text1448"><tspan
             x="0"
             y="0"
             id="tspan1446">0</tspan></text>
      </g>
      <path
         d="m 48.371875,99.198638 h -8"
         style="fill:#000000;fill-opacity:1;fill-rule:nonzero;stroke:#000000;stroke-width:1.5;stroke-linecap:butt;stroke-linejoin:round;stroke-miterlimit:10;stroke-dasharray:none;stroke-opacity:1"
         id="path1450" />
      <g
         id="g1452"
         transform="translate(26.684375,93.120513)">
        <text
           transform="scale(1,-1)"
           style="font-variant:normal;font-weight:normal;font-size:16px;font-family:DejaVuSans;-inkscape-font-specification:DejaVuSans;writing-mode:lr-tb;fill:#000000;fill-opacity:1;fill-rule:nonzero;stroke:none"
           id="text1456"><tspan
             x="0"
             y="0"
             id="tspan1454">1</tspan></text>
      </g>
      <path
         d="m 48.371875,144.50201 h -8"
         style="fill:#000000;fill-opacity:1;fill-rule:nonzero;stroke:#000000;stroke-width:1.5;stroke-linecap:butt;stroke-linejoin:round;stroke-miterlimit:10;stroke-dasharray:none;stroke-opacity:1"
         id="path1458" />
      <g
         id="g1460"
         transform="translate(26.684375,138.42388)">
        <text
           transform="scale(1,-1)"
           style="font-variant:normal;font-weight:normal;font-size:16px;font-family:DejaVuSans;-inkscape-font-specification:DejaVuSans;writing-mode:lr-tb;fill:#000000;fill-opacity:1;fill-rule:nonzero;stroke:none"
           id="text1464"><tspan
             x="0"
             y="0"
             id="tspan1462">2</tspan></text>
      </g>
      <path
         d="m 48.371875,189.80538 h -8"
         style="fill:#000000;fill-opacity:1;fill-rule:nonzero;stroke:#000000;stroke-width:1.5;stroke-linecap:butt;stroke-linejoin:round;stroke-miterlimit:10;stroke-dasharray:none;stroke-opacity:1"
         id="path1466" />
      <g
         id="g1468"
         transform="translate(26.684375,183.72725)">
        <text
           transform="scale(1,-1)"
           style="font-variant:normal;font-weight:normal;font-size:16px;font-family:DejaVuSans;-inkscape-font-specification:DejaVuSans;writing-mode:lr-tb;fill:#000000;fill-opacity:1;fill-rule:nonzero;stroke:none"
           id="text1472"><tspan
             x="0"
             y="0"
             id="tspan1470">3</tspan></text>
      </g>
      <path
         d="m 48.371875,235.10875 h -8"
         style="fill:#000000;fill-opacity:1;fill-rule:nonzero;stroke:#000000;stroke-width:1.5;stroke-linecap:butt;stroke-linejoin:round;stroke-miterlimit:10;stroke-dasharray:none;stroke-opacity:1"
         id="path1474" />
      <g
         id="g1476"
         transform="translate(26.684375,229.03062)">
        <text
           transform="scale(1,-1)"
           style="font-variant:normal;font-weight:normal;font-size:16px;font-family:DejaVuSans;-inkscape-font-specification:DejaVuSans;writing-mode:lr-tb;fill:#000000;fill-opacity:1;fill-rule:nonzero;stroke:none"
           id="text1480"><tspan
             x="0"
             y="0"
             id="tspan1478">4</tspan></text>
      </g>
      <g
         id="g1482"
         transform="rotate(90,-25.051406,44.407656)">
        <text
           transform="scale(1,-1)"
           style="font-variant:normal;font-weight:normal;font-size:16px;font-family:DejaVuSans;-inkscape-font-specification:DejaVuSans;writing-mode:lr-tb;fill:#000000;fill-opacity:1;fill-rule:nonzero;stroke:none"
           id="text1486"><tspan
             x="0 12.592 20.927999 29.728001 34.175999 38.624001 43.071999 52.880001 59.152 68.944 75.519997 80.608002 90.767998 97.040001 103.27225 113.11225 123.25625 133.41624 139.68825"
             y="0"
             sodipodi:role="line"
             id="tspan1484">Oscillator Strength</tspan></text>
      </g>
      <g
         id="g1488">
        <g
           id="g1490"
           clip-path="url(#clipPath1494)">
          <path
             d="m 532.0315,54.523673 -145.28773,0.242483 -70.88598,0.311835 -39.53657,0.373426 -25.08035,0.44479 -16.90693,0.515328 -12.2706,0.604061 -8.55875,0.641371 -6.74958,0.733688 -5.16714,0.788341 -3.74739,0.76475 -3.64282,0.978793 -2.37259,0.816107 -2.32925,0.993229 -2.2871,1.228392 -2.24607,1.547416 -2.20614,1.990718 -1.08842,1.2172 -1.07884,1.405987 -1.06938,1.635356 -1.06003,1.91604 -1.05082,2.2619 -1.04172,2.690728 -1.03274,3.225011 -1.02387,3.892269 -1.01512,4.723982 -1.00649,5.750936 -0.99795,6.99051 -0.98954,8.41778 -0.98121,9.9091 -2.8948,33.07575 -0.94898,6.92511 -0.94117,1.61271 -0.93346,-4.0749 -0.92584,-8.35986 -2.73271,-30.41621 -0.89627,-8.00584 -0.8891,-6.48241 -0.88202,-5.1051 -0.87501,-3.928434 -0.8681,-2.94514 -0.86127,-2.124453 -0.85451,-1.43009 -0.84783,-0.827625 -0.84123,-0.287088 -0.83472,0.216325 -0.82827,0.70213 -0.82189,1.184357 -0.8156,1.670835 -0.80938,2.161533 -0.80321,2.645605 -1.58825,6.567085 -2.33793,10.73326 -0.76772,2.6358 -0.76204,1.55579 -0.75641,0.22979 -0.75085,-1.14271 -0.74534,-2.34628 -0.73991,-3.22519 -3.61998,-17.888149 -1.41192,-4.868642 -0.69845,-1.806156 -0.69351,-1.418089 -0.68863,-1.057566 -0.6838,-0.723294 -0.67901,-0.412396 -0.67429,-0.121696 -0.6696,0.151431 -0.66496,0.408484 -0.66038,0.649429 -0.65585,0.872469 -1.29825,2.322945 -1.28065,2.885378 -2.50991,6.032235 -1.22993,2.253647 -0.60886,0.7436 -0.60484,0.45199 -0.60087,0.17391 -0.59692,-0.0531 -2.34905,-0.69351 -0.57779,0.1221 -0.57407,0.31482 -2.25985,1.86568 -0.55602,-0.0172 -0.55252,-0.48441 -0.54904,-1.02023 -0.5456,-1.550873 -1.081,-4.344369 -2.64446,-12.294003 -1.03521,-3.867443 -1.02267,-3.068851 -1.01034,-2.361427 -0.99824,-1.76858 -0.98636,-1.276755 -0.97468,-0.861757 -0.963223,-0.49916 -0.951953,-0.167749 -0.940883,0.149088 -0.930007,0.461353 -0.919317,0.76791 -0.90881,1.048591 -1.786813,2.578575 -1.313834,1.698476 -0.863689,0.774053 -2.948581,2.150383 -1.634812,1.475408 -0.804221,0.352719 -0.795621,0.04089 -1.565983,-0.07011 -0.770629,0.23376 -1.140852,0.682625 -2.228914,1.61159 -0.72777,0.862947 -0.720363,1.356436 -0.713068,2.022444 -0.705883,2.765997 -1.04559,5.322695 -1.369964,7.099387 -0.674859,2.18088 -0.334942,0.58064 -0.3333,0.2581 -0.331671,-0.0157 -0.330053,-0.2245 -0.980568,-1.2419 -0.645836,-0.72106 -0.639641,-0.2795 -0.317526,0.056 -0.630514,0.43872 -1.856021,1.79906 -0.607109,0.11784 -0.601463,-0.33342 -1.479458,-1.43796 -0.29182,0.0473 -0.290484,0.24532 -0.576998,0.98893 -0.571765,1.14482 -0.283942,0.33193 -0.28266,-0.008 -0.281387,-0.45485 -0.280122,-0.95879 -0.556485,-3.34451 -1.098162,-9.583556 -1.078853,-8.452387 -0.796774,-4.285151 -0.525409,-1.9382 L 56.569589,76.312851 55.7967,74.972548 54.530479,73.020024 53.046127,70.474228 52.317895,69.666729 51.598729,69.224611 50.88846,69.054057 50.186924,69.112863 49.03667,69.388785 48.583075,69.204018 48.13313,68.626635 47.686792,67.641643 46.368991,63.703257 45.507717,61.522783 44.659875,59.956887 43.825151,58.852562 42.799737,57.893398 41.594875,57.115989 40.223359,56.504499 38.325166,55.931503 35.781792,55.433592 32.361761,55.013014 27.503914,54.654277 20.125104,54.352655 8.371544,54.119483 -1,54.025854 v 0"
             style="fill:none;stroke:#882255;stroke-width:2;stroke-linecap:square;stroke-linejoin:round;stroke-miterlimit:10;stroke-dasharray:none;stroke-opacity:1"
             id="path1496" />
        </g>
      </g>
      <g
         id="g1498">
        <g
           id="g1500"
           clip-path="url(#clipPath1504)">
          <path
             d="m 532.0315,54.488001 -185.28523,0.227075 -80.53068,0.29293 -42.67406,0.354056 -25.70105,0.414572 -17.25123,0.492536 -11.26887,0.529074 -8.47343,0.622045 -6.1753,0.690412 -4.20656,0.68022 -3.25008,0.72135 -3.15271,0.953509 -2.30323,0.916301 -2.2526,1.103918 -5.06837,2.697728 -2.0954,0.752012 -3.39533,1.044187 -1.32534,0.63369 -1.3072,0.876683 -1.2894,1.180207 -1.27199,1.545115 -1.25491,1.979676 -1.23818,2.490846 -1.22177,3.069272 -1.20571,3.663771 -1.77909,6.318224 -1.74467,6.191214 -1.14447,3.382056 -2.24547,5.88006 -1.10156,3.98662 -1.08779,5.3477 -1.60642,8.94496 -0.52886,2.21633 -0.52561,1.2999 -0.52238,0.16906 -0.51919,-1.00136 -0.51602,-2.02218 -1.02267,-5.8962 -1.51096,-8.88645 -0.49762,-2.18246 -0.49465,-1.64533 -0.49171,-1.07225 -0.48879,-0.47348 -0.48589,0.15381 -0.48303,0.82285 -0.480193,1.55613 -0.477372,2.38536 -0.474581,3.35265 -0.471813,4.5116 -0.46907,5.92674 -0.466351,7.66583 -0.463656,9.77375 -0.919317,26.87198 -0.90881,32.50027 -0.450521,12.29463 -0.447962,5.18082 -0.445423,-2.56537 -1.321256,-23.50775 -0.435485,-4.05782 -0.433051,-0.71856 -0.430638,2.35188 -0.428247,4.79531 -0.849394,12.41718 -0.421187,4.28414 -0.418874,0.64212 -0.416578,-3.83903 -0.414301,-7.81236 -2.038006,-49.12497 -0.799904,-11.43765 -0.791372,-6.65615 -0.392528,-1.92585 -0.390447,-1.17099 -0.38838,-0.53506 -0.386331,-0.0133 -0.384298,0.39263 -0.762559,1.51471 -0.754616,1.65474 -0.374367,0.59303 -0.372429,0.32009 -0.370503,-0.002 -0.368594,-0.33229 -0.731516,-1.46192 -1.083315,-2.60928 -0.357439,-0.50907 -0.355629,-0.17643 -0.353833,0.21 -0.35205,0.62665 -0.350281,1.05295 -0.695309,3.32718 -1.030022,7.20761 -1.014801,7.08879 -0.668242,2.91955 -0.331671,0.75484 -0.330053,0.3322 -0.328447,-0.0104 -0.326852,-0.25553 -1.291695,-1.51119 -0.319051,-0.12492 -0.317526,0.0509 -0.316009,0.23259 -0.314505,0.42062 -0.313011,0.63054 -0.621581,2.09696 -0.615731,3.64753 -1.51427,12.02465 -0.298637,0.3632 -0.297256,-1.12053 -0.295882,-2.57105 -0.587683,-8.14795 -0.871462,-13.13281 -0.574373,-6.05404 -0.569174,-3.07869 -0.28266,-0.42976 -0.281387,0.26416 -0.280122,0.89666 -0.556485,3.2758 -0.825452,5.81488 -0.27271,1.16272 -0.271503,0.3871 -0.270305,-0.48648 -0.269114,-1.32712 -0.534688,-4.53219 -1.576285,-15.87549 -0.772889,-5.57703 -0.762979,-3.74534 -0.503242,-1.58028 -0.498977,-0.98095 -0.494767,-0.52172 -0.490608,-0.21037 -1.208672,-0.20449 -0.476462,-0.41072 -0.472533,-0.7806 -0.933469,-2.2599 L 49.26485,104.31375 48.809413,102.3735 48.357649,99.526885 47.686792,93.527212 46.152396,78.704287 45.29451,72.903045 44.449976,68.88766 43.618485,66.073725 42.799737,64.04105 41.79378,62.205007 40.806732,60.873653 39.646492,59.700074 38.325166,58.704856 36.856041,57.879225 35.078347,57.13864 32.859625,56.469216 30.105001,55.883284 26.474539,55.358827 21.789607,54.919948 15.277611,54.548587 5.868684,54.253756 -1,54.130144 v 0"
             style="fill:none;stroke:#cc6677;stroke-width:2;stroke-linecap:square;stroke-linejoin:round;stroke-miterlimit:10;stroke-dasharray:none;stroke-opacity:1"
             id="path1506" />
        </g>
      </g>
      <g
         id="g1508">
        <g
           id="g1510"
           clip-path="url(#clipPath1514)">
          <path
             d="m 532.0315,56.044003 -47.27404,0.449835 -35.51759,0.553291 -22.67557,0.540493 -20.75392,0.72941 -15.37831,0.788961 -10.88784,0.767956 -10.37748,0.982983 -6.65223,0.816922 -6.45065,0.987816 -6.25809,1.207746 -6.07402,1.49294 -2.97052,0.87936 -2.92745,0.984727 -2.88534,1.104605 -2.84412,1.240399 -2.80378,1.393111 -2.76428,1.562893 -2.72563,1.748365 -2.68777,1.945592 -2.65069,2.146688 -2.61439,2.338068 -5.12278,5.097453 -4.98618,5.066571 -2.44355,2.158566 -2.41141,1.668735 -2.37988,1.018962 -2.34897,0.271267 -2.31867,-0.484795 -2.28894,-1.156862 -2.25978,-1.675905 -2.23117,-2.010907 -6.52723,-6.417566 -2.12202,-1.902905 -2.09599,-1.691487 -2.07042,-1.462682 -2.04533,-1.230959 -2.02068,-1.004634 -1.99649,-0.787642 -1.97271,-0.581004 -1.94937,-0.383903 -1.92644,-0.194423 -1.90391,-0.01001 -1.88176,0.172213 -1.86002,0.355301 -1.83863,0.542328 -1.81762,0.736295 -1.79697,0.93998 -1.77666,1.155713 -1.7567,1.385029 -1.73707,1.628099 -1.71777,1.882902 -1.69879,2.144072 -1.68012,2.401414 -1.66176,2.638307 -3.26962,5.776498 -3.19968,5.750955 -1.57432,2.48625 -1.55765,2.00007 -1.54126,1.37427 -1.52512,0.66416 -1.50923,-0.0645 -1.49359,-0.75333 -1.47819,-1.3623 -1.46304,-1.87053 -1.4481,-2.26975 -2.85233,-5.294593 -5.5352,-10.878761 -2.68621,-4.564027 -2.63404,-3.751054 -2.58339,-2.982837 -2.53418,-2.31916 -2.48637,-1.767015 -2.4399,-1.311053 -2.39471,-0.929703 -2.35077,-0.602044 -2.30803,-0.310335 -2.26644,-0.04119 -2.22597,0.212669 -2.18657,0.449067 -2.14822,0.651419 -8.22874,2.902072 -3.90866,1.003684 -1.90587,0.758877 -1.87463,1.150463 -0.92584,0.762074 -0.91831,0.90374 -1.8144,2.271755 -1.78537,2.931265 -1.75703,3.592885 -1.72937,4.205406 -1.70234,4.773283 -1.67595,5.385463 -1.65016,6.06084 -2.42819,9.3627 -0.79714,2.47431 -0.79111,1.7009 -0.78517,0.69482 -0.77929,-0.41841 -0.77347,-1.47342 -0.76772,-2.32129 -1.51845,-6.0027 -1.49619,-6.04732 -1.47444,-4.886141 -0.7292,-1.895616 -0.72394,-1.545526 -0.71873,-1.231169 -0.71358,-0.963276 -1.41192,-1.340551 -3.4434,-2.500486 -3.97643,-3.731436 -1.2894,-0.66729 -1.27199,-0.241523 -1.25491,0.08639 -3.66566,0.684667 -0.59692,-0.104369 -0.59302,-0.246696 -0.58915,-0.402968 -1.16688,-1.247564 -1.72226,-2.536416 -1.68945,-2.512459 -1.10854,-1.358757 -1.09464,-0.992261 -1.081,-0.564795 -0.53546,-0.110552 -0.53215,0.0059 -1.05447,0.349818 -1.04157,0.743495 -3.04965,2.814458 -0.49762,0.228491 -0.49465,0.0962 -0.49171,-0.03763 -0.97468,-0.423346 -1.440595,-1.131523 -2.345471,-1.910266 -2.278648,-1.536792 -1.336292,-0.638062 -0.878349,-0.17586 -0.868536,0.07923 -0.858885,0.327529 -1.270581,0.828288 -1.661797,1.441888 -0.817388,0.911475 -0.808574,1.146713 -1.196648,2.237419 -3.099171,6.595226 -2.240509,4.046334 -0.731516,1.798634 -0.724052,2.218528 -1.072331,4.14441 -1.40469,6.737217 -2.055009,10.50701 -0.671539,2.35235 -0.3333,0.76417 -0.331671,0.47463 -0.330053,0.19307 -0.328447,-0.0697 -0.326852,-0.30507 -0.648967,-1.16471 -2.22283,-5.01198 -0.621581,-0.68717 -0.308592,-0.15669 -0.307139,-0.0215 -0.305698,0.11895 -0.607109,0.65783 -0.601463,1.16031 -0.891775,2.4008 -1.746985,5.10639 -0.571765,1.04103 -0.283942,0.26795 -0.28266,0.065 -0.281387,-0.15361 -0.280122,-0.37433 -0.556485,-1.3409 -0.825452,-2.94429 -1.61832,-6.00803 -0.793294,-2.28035 -0.782991,-1.67351 -1.028307,-2.01247 -0.759719,-2.00443 -0.997968,-2.77878 -0.492681,-0.76938 -0.244787,-0.13636 -0.243762,0.0212 -0.96491,0.66195 -0.238726,-0.0758 -0.237736,-0.32666 -0.472533,-1.5415 L 50.419809,97.844332 49.49396,90.819768 47.909513,78.677807 46.804765,71.974508 45.936656,68.08151 45.082137,65.282952 44.240892,63.264681 43.412614,61.775453 42.39505,60.406115 41.199316,59.228005 39.838064,58.252508 38.325166,57.46091 36.495377,56.765411 34.212973,56.149407 31.219902,55.596212 27.355416,55.127371 22.051603,54.727102 14.505785,54.400286 3.055161,54.148068 -1,54.094492 v 0"
             style="fill:none;stroke:#88ccee;stroke-width:2;stroke-linecap:square;stroke-linejoin:round;stroke-miterlimit:10;stroke-dasharray:none;stroke-opacity:1"
             id="path1516" />
        </g>
      </g>
      <g
         id="g1518">
        <g
           id="g1520"
           clip-path="url(#clipPath1524)">
          <path
             d="m 532.0315,53.958821 -287.77883,0.134696 -46.41219,0.213064 -18.32061,0.28055 -10.19949,0.358614 -6.64425,0.447966 -4.51808,0.515914 -3.4864,0.618146 -2.54357,0.651253 -2.48488,0.886776 -1.62498,0.765694 -1.60035,0.93817 -1.57628,1.130166 -2.32048,2.019076 -2.2693,2.07715 -1.48525,1.016537 -0.73453,0.284501 -0.7292,0.0985 -0.72394,-0.09648 -0.71873,-0.282483 -1.42206,-1.012492 -2.0954,-2.071047 -2.05144,-2.012903 -2.00885,-1.616128 -1.96758,-1.205221 -1.92755,-0.880201 -1.88875,-0.644474 -2.45995,-0.60872 -2.9848,-0.503361 -4.01903,-0.428514 -5.44021,-0.325433 -7.55852,-0.198894 -8.23181,-0.0016 -5.850276,0.194011 -3.53326,0.325727 -2.263971,0.419613 -1.833565,0.579231 -1.787264,0.839365 -1.742693,0.843448 -1.024911,0.254925 -1.009801,-0.01366 L 69.816451,57.542334 68.863865,57.7195 67.924822,58.126658 65.18613,59.5961 64.592992,59.55521 63.713489,59.177744 61.9903,57.981854 60.867265,57.322559 59.764194,56.96244 58.949676,56.90396 58.145874,57.030253 57.35258,57.353482 56.569589,57.885847 54.28046,59.79516 53.783595,59.78546 53.290914,59.520037 52.317895,58.592098 51.360993,57.748958 50.653652,57.356087 49.724005,57.093873 48.583075,56.791401 47.464963,56.188356 45.936656,55.35295 44.659875,54.911378 43.003245,54.580232 40.417088,54.317518 35.959229,54.123067 26.766255,53.988576 2.270743,53.913277 -1,53.91006 v 0"
             style="fill:none;stroke:#3652ac;stroke-width:2;stroke-linecap:square;stroke-linejoin:round;stroke-miterlimit:10;stroke-dasharray:none;stroke-opacity:1"
             id="path1526" />
        </g>
      </g>
      <g
         id="g1528">
        <path
           d="m 48.371875,53.66875 v 181.44"
           style="fill:none;stroke:#000000;stroke-width:1.5;stroke-linecap:square;stroke-linejoin:miter;stroke-miterlimit:10;stroke-dasharray:none;stroke-opacity:1"
           id="path1530" />
        <path
           d="m 383.17187,53.66875 v 181.44"
           style="fill:none;stroke:#000000;stroke-width:1.5;stroke-linecap:square;stroke-linejoin:miter;stroke-miterlimit:10;stroke-dasharray:none;stroke-opacity:1"
           id="path1532" />
        <path
           d="M 48.371875,53.66875 H 383.17187"
           style="fill:none;stroke:#000000;stroke-width:1.5;stroke-linecap:square;stroke-linejoin:miter;stroke-miterlimit:10;stroke-dasharray:none;stroke-opacity:1"
           id="path1534" />
        <path
           d="M 48.371875,235.10875 H 383.17187"
           style="fill:none;stroke:#000000;stroke-width:1.5;stroke-linecap:square;stroke-linejoin:miter;stroke-miterlimit:10;stroke-dasharray:none;stroke-opacity:1"
           id="path1536" />
        <path
           d="M 396.41587,141.71162 H 500.2565 c 2.13333,0 3.2,1.06667 3.2,3.2 v 68.85313 c 0,2.13333 -1.06667,3.2 -3.2,3.2 H 396.41587 c -2.13333,0 -3.2,-1.06667 -3.2,-3.2 v -68.85313 c 0,-2.13333 1.06667,-3.2 3.2,-3.2 z"
           style="fill:#ffffff;fill-opacity:0.8;fill-rule:nonzero;stroke:#cccccc;stroke-width:1;stroke-linecap:butt;stroke-linejoin:miter;stroke-miterlimit:10;stroke-dasharray:none;stroke-opacity:0.8"
           id="path1538" />
        <g
           id="g1540"
           transform="translate(410.57837,198.4085)">
          <text
             transform="scale(1,-1)"
             style="font-variant:normal;font-weight:normal;font-size:16px;font-family:DejaVuSans;-inkscape-font-specification:DejaVuSans;writing-mode:lr-tb;fill:#000000;fill-opacity:1;fill-rule:nonzero;stroke:none"
             id="text1544"><tspan
               x="0 8.0437498 14.276 24.068001 34.212002 40.484001 45.571999 56.740002 66.580002 71.028"
               y="0"
               sodipodi:role="line"
               id="tspan1542">Front Cell</tspan></text>
        </g>
        <path
           d="m 399.61588,180.52412 h 16 16"
           style="fill:none;stroke:#882255;stroke-width:2;stroke-linecap:square;stroke-linejoin:round;stroke-miterlimit:10;stroke-dasharray:none;stroke-opacity:1"
           id="path1546" />
        <g
           id="g1548"
           transform="translate(444.41587,174.92412)">
          <text
             transform="scale(1,-1)"
             style="font-variant:normal;font-weight:normal;font-size:16px;font-family:DejaVuSans;-inkscape-font-specification:DejaVuSans;writing-mode:lr-tb;fill:#000000;fill-opacity:1;fill-rule:nonzero;stroke:none"
             id="text1552"><tspan
               x="0 10.66275 19.462749 28.262751 33.35075 38.438751"
               y="0"
               sodipodi:role="line"
               id="tspan1550">Acc. 0</tspan></text>
        </g>
        <path
           d="m 399.61588,157.03975 h 16 16"
           style="fill:none;stroke:#cc6677;stroke-width:2;stroke-linecap:square;stroke-linejoin:round;stroke-miterlimit:10;stroke-dasharray:none;stroke-opacity:1"
           id="path1554" />
        <g
           id="g1556"
           transform="translate(444.41587,151.43975)">
          <text
             transform="scale(1,-1)"
             style="font-variant:normal;font-weight:normal;font-size:16px;font-family:DejaVuSans;-inkscape-font-specification:DejaVuSans;writing-mode:lr-tb;fill:#000000;fill-opacity:1;fill-rule:nonzero;stroke:none"
             id="text1560"><tspan
               x="0 12.32 22.112 32.256001 37.344002 42.431999"
               y="0"
               sodipodi:role="line"
               id="tspan1558">Don. 0</tspan></text>
        </g>
        <path
           d="M 396.41587,60.063625 H 520.6315 c 2.13333,0 3.2,1.066667 3.2,3.2 v 68.853125 c 0,2.13333 -1.06667,3.2 -3.2,3.2 H 396.41587 c -2.13333,0 -3.2,-1.06667 -3.2,-3.2 V 63.263625 c 0,-2.133333 1.06667,-3.2 3.2,-3.2 z"
           style="fill:#ffffff;fill-opacity:0.8;fill-rule:nonzero;stroke:#cccccc;stroke-width:1;stroke-linecap:butt;stroke-linejoin:miter;stroke-miterlimit:10;stroke-dasharray:none;stroke-opacity:0.8"
           id="path1562" />
        <g
           id="g1564"
           transform="translate(422.71119,116.7605)">
          <text
             transform="scale(1,-1)"
             style="font-variant:normal;font-weight:normal;font-size:16px;font-family:DejaVuSans;-inkscape-font-specification:DejaVuSans;writing-mode:lr-tb;fill:#000000;fill-opacity:1;fill-rule:nonzero;stroke:none"
             id="text1568"><tspan
               x="0 10.40125 20.241249 30.04925 36.625252 41.713249 52.881248 62.721249 67.16925"
               y="0"
               sodipodi:role="line"
               id="tspan1566">Rear Cell</tspan></text>
        </g>
        <path
           d="m 399.61588,98.876125 h 16 16"
           style="fill:none;stroke:#88ccee;stroke-width:2;stroke-linecap:square;stroke-linejoin:round;stroke-miterlimit:10;stroke-dasharray:none;stroke-opacity:1"
           id="path1570" />
        <g
           id="g1572"
           transform="translate(444.41587,93.276125)">
          <text
             transform="scale(1,-1)"
             style="font-variant:normal;font-weight:normal;font-size:16px;font-family:DejaVuSans;-inkscape-font-specification:DejaVuSans;writing-mode:lr-tb;fill:#000000;fill-opacity:1;fill-rule:nonzero;stroke:none"
             id="text1576"><tspan
               x="0 10.66275 19.462749 28.262751 33.35075 38.438751 48.61475 58.790749"
               y="0"
               sodipodi:role="line"
               id="tspan1574">Acc. 660</tspan></text>
        </g>
        <path
           d="m 399.61588,75.39175 h 16 16"
           style="fill:none;stroke:#3652ac;stroke-width:2;stroke-linecap:square;stroke-linejoin:round;stroke-miterlimit:10;stroke-dasharray:none;stroke-opacity:1"
           id="path1578" />
        <g
           id="g1580"
           transform="translate(444.41587,69.79175)">
          <text
             transform="scale(1,-1)"
             style="font-variant:normal;font-weight:normal;font-size:16px;font-family:DejaVuSans;-inkscape-font-specification:DejaVuSans;writing-mode:lr-tb;fill:#000000;fill-opacity:1;fill-rule:nonzero;stroke:none"
             id="text1584"><tspan
               x="0 12.32 22.112 32.256001 37.344002 42.431999 52.608002 62.784"
               y="0"
               sodipodi:role="line"
               id="tspan1582">Don. 698</tspan></text>
        </g>
      </g>
    </g>
    <text
       xml:space="preserve"
       style="font-style:normal;font-weight:normal;font-size:9.87778px;line-height:1.25;font-family:sans-serif;fill:#000000;fill-opacity:1;stroke:none;stroke-width:0.264583"
       x="50.221382"
       y="4.3556614"
       id="text2627"><tspan
         sodipodi:role="line"
         id="tspan2625"
         style="font-size:9.87778px;stroke-width:0.264583"
         x="50.221382"
         y="4.3556614">Smear 0.04 eV</tspan></text>
    <text
       xml:space="preserve"
       style="font-style:normal;font-weight:normal;font-size:9.87778px;line-height:1.25;font-family:sans-serif;fill:#000000;fill-opacity:1;stroke:none;stroke-width:0.264583"
       x="50.221382"
       y="106.06847"
       id="text2627-6"><tspan
         sodipodi:role="line"
         id="tspan2625-9"
         style="font-size:9.87778px;stroke-width:0.264583"
         x="50.221382"
         y="106.06847">Smear 0.08 eV</tspan></text>
    <text
       xml:space="preserve"
       style="font-style:normal;font-weight:normal;font-size:9.87778px;line-height:1.25;font-family:sans-serif;fill:#000000;fill-opacity:1;stroke:none;stroke-width:0.264583"
       x="50.221382"
       y="207.93027"
       id="text2627-8"><tspan
         sodipodi:role="line"
         id="tspan2625-97"
         style="font-size:9.87778px;stroke-width:0.264583"
         x="50.221382"
         y="207.93027">Smear 0.12 eV</tspan></text>
  </g>
</svg>
